<mxfile host="65bd71144e">
    <diagram id="6SdW7Xw68i-UTDWBZWGj" name="1-Topics">
        <mxGraphModel dx="1332" dy="2674" grid="1" gridSize="10" guides="1" tooltips="1" connect="1" arrows="1" fold="1" page="1" pageScale="1" pageWidth="850" pageHeight="1100" math="0" shadow="0">
            <root>
                <mxCell id="0"/>
                <mxCell id="1" parent="0"/>
                <mxCell id="15" value="" style="whiteSpace=wrap;html=1;fontFamily=Helvetica;fontSize=11;fontColor=default;labelBackgroundColor=default;movable=1;resizable=1;rotatable=1;deletable=1;editable=1;locked=0;connectable=1;" parent="1" vertex="1">
                    <mxGeometry x="-390" width="1450" height="1230" as="geometry"/>
                </mxCell>
                <mxCell id="11" value="" style="rounded=1;whiteSpace=wrap;html=1;fontFamily=Helvetica;fontSize=11;labelBackgroundColor=default;fillColor=#f8cecc;strokeColor=#b85450;" parent="1" vertex="1">
                    <mxGeometry x="-260" y="615" width="380" height="400" as="geometry"/>
                </mxCell>
                <mxCell id="10" value="" style="rounded=1;whiteSpace=wrap;html=1;fontFamily=Helvetica;fontSize=11;labelBackgroundColor=default;fillColor=#dae8fc;strokeColor=#6c8ebf;" parent="1" vertex="1">
                    <mxGeometry x="495" y="330" width="380" height="400" as="geometry"/>
                </mxCell>
                <mxCell id="5" style="edgeStyle=orthogonalEdgeStyle;html=1;exitX=0;exitY=0.5;exitDx=0;exitDy=0;entryX=1;entryY=0.5;entryDx=0;entryDy=0;curved=1;" parent="1" source="2" target="4" edge="1">
                    <mxGeometry relative="1" as="geometry"/>
                </mxCell>
                <mxCell id="13" value="msg" style="edgeLabel;html=1;align=center;verticalAlign=middle;resizable=0;points=[];fontFamily=Helvetica;fontSize=15;fontColor=default;labelBackgroundColor=default;" parent="5" vertex="1" connectable="0">
                    <mxGeometry x="0.1697" y="-1" relative="1" as="geometry">
                        <mxPoint x="-14" y="46" as="offset"/>
                    </mxGeometry>
                </mxCell>
                <mxCell id="2" value="msg_publisher" style="ellipse;whiteSpace=wrap;html=1;fillColor=#1ba1e2;strokeColor=#006EAF;fontColor=#ffffff;fontSize=16;fontStyle=1" parent="1" vertex="1">
                    <mxGeometry x="585" y="460" width="200" height="200" as="geometry"/>
                </mxCell>
                <mxCell id="3" value="msg_subscriber" style="ellipse;whiteSpace=wrap;html=1;fillColor=#f0a30a;fontColor=#000000;strokeColor=#BD7000;fontSize=16;" parent="1" vertex="1">
                    <mxGeometry x="-130" y="810" width="185" height="185" as="geometry"/>
                </mxCell>
                <mxCell id="6" style="edgeStyle=orthogonalEdgeStyle;html=1;entryX=1;entryY=0.5;entryDx=0;entryDy=0;curved=1;" parent="1" source="4" target="3" edge="1">
                    <mxGeometry relative="1" as="geometry"/>
                </mxCell>
                <mxCell id="14" value="msg" style="edgeLabel;html=1;align=center;verticalAlign=middle;resizable=0;points=[];fontFamily=Helvetica;fontSize=16;fontColor=default;labelBackgroundColor=default;" parent="6" vertex="1" connectable="0">
                    <mxGeometry x="-0.1433" y="13" relative="1" as="geometry">
                        <mxPoint as="offset"/>
                    </mxGeometry>
                </mxCell>
                <mxCell id="4" value="TOPIC" style="rounded=1;whiteSpace=wrap;html=1;fillColor=#e3c800;strokeColor=#B09500;fontColor=#000000;" parent="1" vertex="1">
                    <mxGeometry x="295" y="780" width="140" height="70" as="geometry"/>
                </mxCell>
                <mxCell id="9" value="&lt;span&gt;NODE 1&lt;/span&gt;" style="text;html=1;align=center;verticalAlign=middle;resizable=0;points=[];autosize=1;strokeColor=none;fillColor=none;fontFamily=Helvetica;fontSize=21;fontColor=default;labelBackgroundColor=none;strokeWidth=3;fontStyle=1" parent="1" vertex="1">
                    <mxGeometry x="515" y="340" width="100" height="40" as="geometry"/>
                </mxCell>
                <mxCell id="12" value="&lt;span&gt;NODE 2&lt;/span&gt;" style="text;html=1;align=center;verticalAlign=middle;resizable=0;points=[];autosize=1;strokeColor=none;fillColor=none;fontFamily=Helvetica;fontSize=21;fontColor=default;labelBackgroundColor=none;strokeWidth=3;fontStyle=1" parent="1" vertex="1">
                    <mxGeometry x="-185" y="630" width="100" height="40" as="geometry"/>
                </mxCell>
                <mxCell id="16" value="&lt;h1&gt;&lt;font&gt;Publisher- Subscriber Model&lt;/font&gt;&lt;/h1&gt;" style="text;html=1;align=center;verticalAlign=middle;resizable=0;points=[];autosize=1;strokeColor=none;fillColor=none;fontFamily=Helvetica;fontSize=30;fontColor=default;labelBackgroundColor=default;" parent="1" vertex="1">
                    <mxGeometry x="-130" width="840" height="170" as="geometry"/>
                </mxCell>
                <mxCell id="31" value="" style="whiteSpace=wrap;html=1;fontFamily=Helvetica;fontSize=11;fontColor=default;labelBackgroundColor=default;movable=1;resizable=1;rotatable=1;deletable=1;editable=1;locked=0;connectable=1;" parent="1" vertex="1">
                    <mxGeometry x="-420" y="2210" width="1450" height="1230" as="geometry"/>
                </mxCell>
                <mxCell id="32" value="" style="rounded=1;whiteSpace=wrap;html=1;fontFamily=Helvetica;fontSize=11;labelBackgroundColor=default;fillColor=#f8cecc;strokeColor=#b85450;" parent="1" vertex="1">
                    <mxGeometry x="-235" y="2820" width="380" height="400" as="geometry"/>
                </mxCell>
                <mxCell id="33" value="" style="rounded=1;whiteSpace=wrap;html=1;fontFamily=Helvetica;fontSize=11;labelBackgroundColor=default;fillColor=#dae8fc;strokeColor=#6c8ebf;" parent="1" vertex="1">
                    <mxGeometry x="465" y="2540" width="380" height="400" as="geometry"/>
                </mxCell>
                <mxCell id="34" style="edgeStyle=orthogonalEdgeStyle;html=1;exitX=0;exitY=0.5;exitDx=0;exitDy=0;entryX=1;entryY=0.5;entryDx=0;entryDy=0;curved=1;" parent="1" source="36" target="40" edge="1">
                    <mxGeometry relative="1" as="geometry"/>
                </mxCell>
                <mxCell id="35" value="msg" style="edgeLabel;html=1;align=center;verticalAlign=middle;resizable=0;points=[];fontFamily=Helvetica;fontSize=15;fontColor=default;labelBackgroundColor=default;" parent="34" vertex="1" connectable="0">
                    <mxGeometry x="0.1697" y="-1" relative="1" as="geometry">
                        <mxPoint x="-14" y="46" as="offset"/>
                    </mxGeometry>
                </mxCell>
                <mxCell id="36" value="hello_publisher" style="ellipse;whiteSpace=wrap;html=1;fillColor=#1ba1e2;strokeColor=#006EAF;fontColor=#ffffff;fontSize=16;fontStyle=1" parent="1" vertex="1">
                    <mxGeometry x="555" y="2670" width="200" height="200" as="geometry"/>
                </mxCell>
                <mxCell id="37" value="hello_subscriber" style="ellipse;whiteSpace=wrap;html=1;fillColor=#f0a30a;fontColor=#000000;strokeColor=#BD7000;fontSize=16;" parent="1" vertex="1">
                    <mxGeometry x="-110" y="2995" width="185" height="185" as="geometry"/>
                </mxCell>
                <mxCell id="38" style="edgeStyle=orthogonalEdgeStyle;html=1;entryX=1;entryY=0.5;entryDx=0;entryDy=0;curved=1;" parent="1" source="40" target="37" edge="1">
                    <mxGeometry relative="1" as="geometry"/>
                </mxCell>
                <mxCell id="39" value="msg" style="edgeLabel;html=1;align=center;verticalAlign=middle;resizable=0;points=[];fontFamily=Helvetica;fontSize=16;fontColor=default;labelBackgroundColor=default;" parent="38" vertex="1" connectable="0">
                    <mxGeometry x="-0.1433" y="13" relative="1" as="geometry">
                        <mxPoint as="offset"/>
                    </mxGeometry>
                </mxCell>
                <mxCell id="40" value="/chatter" style="rounded=1;whiteSpace=wrap;html=1;fillColor=#e3c800;strokeColor=#B09500;fontColor=#000000;fontSize=16;" parent="1" vertex="1">
                    <mxGeometry x="265" y="2990" width="140" height="70" as="geometry"/>
                </mxCell>
                <mxCell id="41" value="Taker Node" style="text;html=1;align=center;verticalAlign=middle;resizable=0;points=[];autosize=1;strokeColor=none;fillColor=none;fontFamily=Helvetica;fontSize=21;fontColor=default;labelBackgroundColor=none;strokeWidth=3;fontStyle=1" parent="1" vertex="1">
                    <mxGeometry x="525" y="2550" width="130" height="40" as="geometry"/>
                </mxCell>
                <mxCell id="43" value="&lt;h1&gt;&lt;font&gt;Publisher- Subscriber Example&lt;/font&gt;&lt;/h1&gt;" style="text;html=1;align=center;verticalAlign=middle;resizable=0;points=[];autosize=1;strokeColor=none;fillColor=none;fontFamily=Helvetica;fontSize=30;fontColor=default;labelBackgroundColor=default;" parent="1" vertex="1">
                    <mxGeometry x="-195" y="2210" width="910" height="170" as="geometry"/>
                </mxCell>
                <mxCell id="44" value="Listener Node" style="text;html=1;align=center;verticalAlign=middle;resizable=0;points=[];autosize=1;strokeColor=none;fillColor=none;fontFamily=Helvetica;fontSize=21;fontColor=default;labelBackgroundColor=none;strokeWidth=3;fontStyle=1" parent="1" vertex="1">
                    <mxGeometry x="-185" y="2840" width="150" height="40" as="geometry"/>
                </mxCell>
                <mxCell id="45" value="&lt;pre&gt;{Interface_type}&lt;/pre&gt;" style="text;html=1;align=center;verticalAlign=middle;resizable=0;points=[];autosize=1;strokeColor=none;fillColor=none;fontFamily=Helvetica;fontSize=11;fontColor=default;labelBackgroundColor=default;" parent="1" vertex="1">
                    <mxGeometry x="510" y="745" width="130" height="50" as="geometry"/>
                </mxCell>
                <mxCell id="46" value="&lt;pre&gt;{Interface_type}&lt;/pre&gt;" style="text;html=1;align=center;verticalAlign=middle;resizable=0;points=[];autosize=1;strokeColor=none;fillColor=none;fontFamily=Helvetica;fontSize=11;fontColor=default;labelBackgroundColor=default;" parent="1" vertex="1">
                    <mxGeometry x="175" y="850" width="130" height="50" as="geometry"/>
                </mxCell>
                <mxCell id="47" value="&lt;pre&gt;{std_msgs/msg/string}&lt;br&gt;&lt;/pre&gt;" style="text;html=1;align=center;verticalAlign=middle;resizable=0;points=[];autosize=1;strokeColor=none;fillColor=none;fontFamily=Helvetica;fontSize=15;fontColor=default;labelBackgroundColor=default;" parent="1" vertex="1">
                    <mxGeometry x="485" y="2980" width="210" height="60" as="geometry"/>
                </mxCell>
                <mxCell id="49" value="&lt;pre&gt;{std_msgs/msg/string}&lt;br&gt;&lt;/pre&gt;" style="text;html=1;align=center;verticalAlign=middle;resizable=0;points=[];autosize=1;strokeColor=none;fillColor=none;fontFamily=Helvetica;fontSize=15;fontColor=default;labelBackgroundColor=default;" parent="1" vertex="1">
                    <mxGeometry x="155" y="3075" width="210" height="60" as="geometry"/>
                </mxCell>
                <mxCell id="50" value="" style="whiteSpace=wrap;html=1;fontFamily=Helvetica;fontSize=11;fontColor=default;labelBackgroundColor=default;movable=1;resizable=1;rotatable=1;deletable=1;editable=1;locked=0;connectable=1;" parent="1" vertex="1">
                    <mxGeometry x="-400" y="-1580" width="1450" height="1230" as="geometry"/>
                </mxCell>
                <mxCell id="52" value="" style="rounded=1;whiteSpace=wrap;html=1;fontFamily=Helvetica;fontSize=11;labelBackgroundColor=default;fillColor=#dae8fc;strokeColor=#6c8ebf;" parent="1" vertex="1">
                    <mxGeometry x="405" y="-1240" width="380" height="400" as="geometry"/>
                </mxCell>
                <mxCell id="60" value="&lt;span&gt;NODE1&amp;nbsp;&lt;/span&gt;" style="text;html=1;align=center;verticalAlign=middle;resizable=0;points=[];autosize=1;strokeColor=none;fillColor=none;fontFamily=Helvetica;fontSize=21;fontColor=default;labelBackgroundColor=none;strokeWidth=3;fontStyle=1" parent="1" vertex="1">
                    <mxGeometry x="445" y="-1220" width="100" height="40" as="geometry"/>
                </mxCell>
                <mxCell id="62" value="&lt;h1&gt;&lt;font&gt;Single Node Model&lt;/font&gt;&lt;/h1&gt;" style="text;html=1;align=center;verticalAlign=middle;resizable=0;points=[];autosize=1;strokeColor=none;fillColor=none;fontFamily=Helvetica;fontSize=30;fontColor=default;labelBackgroundColor=default;" parent="1" vertex="1">
                    <mxGeometry x="20" y="-1570" width="560" height="170" as="geometry"/>
                </mxCell>
                <mxCell id="73" value="" style="group" parent="1" vertex="1" connectable="0">
                    <mxGeometry x="-230" y="-950" width="380" height="400" as="geometry"/>
                </mxCell>
                <mxCell id="72" value="" style="rounded=1;whiteSpace=wrap;html=1;fontFamily=Helvetica;fontSize=11;labelBackgroundColor=default;fillColor=#f8cecc;strokeColor=#b85450;" parent="73" vertex="1">
                    <mxGeometry width="380" height="400" as="geometry"/>
                </mxCell>
                <mxCell id="71" value="&lt;span&gt;NODE2&amp;nbsp;&lt;/span&gt;" style="text;html=1;align=center;verticalAlign=middle;resizable=0;points=[];autosize=1;strokeColor=none;fillColor=none;fontFamily=Helvetica;fontSize=21;fontColor=default;labelBackgroundColor=none;strokeWidth=3;fontStyle=1" parent="73" vertex="1">
                    <mxGeometry x="20" y="30" width="100" height="40" as="geometry"/>
                </mxCell>
                <mxCell id="90" value="" style="whiteSpace=wrap;html=1;fontFamily=Helvetica;fontSize=11;fontColor=default;labelBackgroundColor=default;movable=1;resizable=1;rotatable=1;deletable=1;editable=1;locked=0;connectable=1;" parent="1" vertex="1">
                    <mxGeometry x="1280" y="-160" width="1930" height="1920" as="geometry"/>
                </mxCell>
                <mxCell id="99" value="/cmd_vel" style="rounded=1;whiteSpace=wrap;html=1;fillColor=#e3c800;strokeColor=#B09500;fontColor=#000000;fontSize=18;fontStyle=1" parent="1" vertex="1">
                    <mxGeometry x="2230" y="480" width="140" height="70" as="geometry"/>
                </mxCell>
                <mxCell id="102" value="&lt;h1&gt;&lt;font&gt;Multi Publisher- Subscriber Model&lt;/font&gt;&lt;/h1&gt;" style="text;html=1;align=center;verticalAlign=middle;resizable=0;points=[];autosize=1;strokeColor=none;fillColor=none;fontFamily=Helvetica;fontSize=30;fontColor=default;labelBackgroundColor=default;" parent="1" vertex="1">
                    <mxGeometry x="1765" y="-150" width="990" height="170" as="geometry"/>
                </mxCell>
                <mxCell id="112" value="" style="group" parent="1" vertex="1" connectable="0">
                    <mxGeometry x="2560" y="180" width="700" height="870" as="geometry"/>
                </mxCell>
                <mxCell id="92" value="" style="rounded=1;whiteSpace=wrap;html=1;fontFamily=Helvetica;fontSize=11;labelBackgroundColor=default;fillColor=#dae8fc;strokeColor=#6c8ebf;" parent="112" vertex="1">
                    <mxGeometry width="580" height="870" as="geometry"/>
                </mxCell>
                <mxCell id="95" value="velocity_publisher" style="ellipse;whiteSpace=wrap;html=1;fillColor=#1ba1e2;strokeColor=#006EAF;fontColor=#ffffff;fontSize=22;fontStyle=1" parent="112" vertex="1">
                    <mxGeometry x="140" y="120" width="260" height="260" as="geometry"/>
                </mxCell>
                <mxCell id="100" value="&lt;span&gt;NODE 1&lt;/span&gt;" style="text;html=1;align=center;verticalAlign=middle;resizable=0;points=[];autosize=1;strokeColor=none;fillColor=none;fontFamily=Helvetica;fontSize=21;fontColor=default;labelBackgroundColor=none;strokeWidth=3;fontStyle=1" parent="112" vertex="1">
                    <mxGeometry x="50" y="30" width="100" height="40" as="geometry"/>
                </mxCell>
                <mxCell id="110" value="pose_subscriber" style="ellipse;whiteSpace=wrap;html=1;fillColor=#f0a30a;fontColor=#000000;strokeColor=#BD7000;fontSize=22;fontStyle=1" parent="112" vertex="1">
                    <mxGeometry x="200" y="480" width="280" height="280" as="geometry"/>
                </mxCell>
                <mxCell id="113" value="" style="group" parent="1" vertex="1" connectable="0">
                    <mxGeometry x="1390" y="320" width="660" height="1060" as="geometry"/>
                </mxCell>
                <mxCell id="91" value="" style="rounded=1;whiteSpace=wrap;html=1;fontFamily=Helvetica;fontSize=11;labelBackgroundColor=default;fillColor=#f8cecc;strokeColor=#b85450;" parent="113" vertex="1">
                    <mxGeometry x="-40" width="680" height="1060" as="geometry"/>
                </mxCell>
                <mxCell id="96" value="velocity_subscriber" style="ellipse;whiteSpace=wrap;html=1;fillColor=#f0a30a;fontColor=#000000;strokeColor=#BD7000;fontSize=22;fontStyle=1" parent="113" vertex="1">
                    <mxGeometry x="260" y="150" width="262.5" height="262.5" as="geometry"/>
                </mxCell>
                <mxCell id="101" value="&lt;span&gt;NODE 2&lt;/span&gt;" style="text;html=1;align=center;verticalAlign=middle;resizable=0;points=[];autosize=1;strokeColor=none;fillColor=none;fontFamily=Helvetica;fontSize=22;fontColor=default;labelBackgroundColor=none;strokeWidth=3;fontStyle=1" parent="113" vertex="1">
                    <mxGeometry x="20" y="22.5" width="110" height="40" as="geometry"/>
                </mxCell>
                <mxCell id="106" value="pose_publisher" style="ellipse;whiteSpace=wrap;html=1;fillColor=#1ba1e2;strokeColor=#006EAF;fontColor=#ffffff;fontSize=22;fontStyle=1" parent="113" vertex="1">
                    <mxGeometry x="20" y="390" width="257.5" height="257.5" as="geometry"/>
                </mxCell>
                <mxCell id="121" value="proximity_publisher" style="ellipse;whiteSpace=wrap;html=1;fillColor=#1ba1e2;strokeColor=#006EAF;fontColor=#ffffff;fontSize=22;fontStyle=1" parent="113" vertex="1">
                    <mxGeometry x="270" y="670" width="270" height="270" as="geometry"/>
                </mxCell>
                <mxCell id="97" style="edgeStyle=orthogonalEdgeStyle;html=1;entryX=1;entryY=0.5;entryDx=0;entryDy=0;curved=1;" parent="1" source="99" target="96" edge="1">
                    <mxGeometry relative="1" as="geometry"/>
                </mxCell>
                <mxCell id="98" value="vel_msg" style="edgeLabel;html=1;align=center;verticalAlign=middle;resizable=0;points=[];fontFamily=Helvetica;fontSize=20;fontColor=default;labelBackgroundColor=default;" parent="97" vertex="1" connectable="0">
                    <mxGeometry x="-0.1433" y="13" relative="1" as="geometry">
                        <mxPoint x="48" y="-9" as="offset"/>
                    </mxGeometry>
                </mxCell>
                <mxCell id="93" style="edgeStyle=orthogonalEdgeStyle;html=1;exitX=0;exitY=0.5;exitDx=0;exitDy=0;entryX=1;entryY=0.5;entryDx=0;entryDy=0;curved=1;" parent="1" source="95" target="99" edge="1">
                    <mxGeometry relative="1" as="geometry"/>
                </mxCell>
                <mxCell id="94" value="vel_msg" style="edgeLabel;html=1;align=center;verticalAlign=middle;resizable=0;points=[];fontFamily=Helvetica;fontSize=20;fontColor=default;labelBackgroundColor=default;" parent="93" vertex="1" connectable="0">
                    <mxGeometry x="0.1697" y="-1" relative="1" as="geometry">
                        <mxPoint x="-31" y="-12" as="offset"/>
                    </mxGeometry>
                </mxCell>
                <mxCell id="118" style="edgeStyle=orthogonalEdgeStyle;html=1;exitX=1;exitY=0.5;exitDx=0;exitDy=0;entryX=0;entryY=0.5;entryDx=0;entryDy=0;curved=1;" parent="1" source="116" target="110" edge="1">
                    <mxGeometry relative="1" as="geometry"/>
                </mxCell>
                <mxCell id="120" value="pose_msg" style="edgeLabel;html=1;align=center;verticalAlign=middle;resizable=0;points=[];fontSize=20;" parent="118" vertex="1" connectable="0">
                    <mxGeometry x="-0.4103" y="10" relative="1" as="geometry">
                        <mxPoint x="-54" y="10" as="offset"/>
                    </mxGeometry>
                </mxCell>
                <mxCell id="116" value="/robot_pose" style="rounded=1;whiteSpace=wrap;html=1;fillColor=#e3c800;strokeColor=#B09500;fontColor=#000000;fontSize=18;fontStyle=1" parent="1" vertex="1">
                    <mxGeometry x="2200" y="880" width="140" height="70" as="geometry"/>
                </mxCell>
                <mxCell id="117" style="edgeStyle=orthogonalEdgeStyle;html=1;entryX=0;entryY=0.5;entryDx=0;entryDy=0;curved=1;" parent="1" source="106" target="116" edge="1">
                    <mxGeometry relative="1" as="geometry"/>
                </mxCell>
                <mxCell id="119" value="pos_msg" style="edgeLabel;html=1;align=center;verticalAlign=middle;resizable=0;points=[];fontSize=20;" parent="117" vertex="1" connectable="0">
                    <mxGeometry x="0.3404" y="-9" relative="1" as="geometry">
                        <mxPoint x="111" y="-9" as="offset"/>
                    </mxGeometry>
                </mxCell>
                <mxCell id="122" value="/prox_data" style="rounded=1;whiteSpace=wrap;html=1;fillColor=#e3c800;strokeColor=#B09500;fontColor=#000000;fontSize=18;fontStyle=1" parent="1" vertex="1">
                    <mxGeometry x="2370" y="1190" width="140" height="70" as="geometry"/>
                </mxCell>
                <mxCell id="123" style="edgeStyle=orthogonalEdgeStyle;html=1;exitX=1;exitY=0.5;exitDx=0;exitDy=0;entryX=0;entryY=0.5;entryDx=0;entryDy=0;curved=1;" parent="1" source="121" target="122" edge="1">
                    <mxGeometry relative="1" as="geometry"/>
                </mxCell>
                <mxCell id="124" value="sensor_msg" style="edgeLabel;html=1;align=center;verticalAlign=middle;resizable=0;points=[];fontSize=20;" parent="123" vertex="1" connectable="0">
                    <mxGeometry x="0.3871" y="7" relative="1" as="geometry">
                        <mxPoint x="18" y="-8" as="offset"/>
                    </mxGeometry>
                </mxCell>
                <mxCell id="125" value="" style="whiteSpace=wrap;html=1;fontFamily=Helvetica;fontSize=11;fontColor=default;labelBackgroundColor=default;movable=1;resizable=1;rotatable=1;deletable=1;editable=1;locked=0;connectable=1;" parent="1" vertex="1">
                    <mxGeometry x="3510" y="-130" width="2050" height="1920" as="geometry"/>
                </mxCell>
                <mxCell id="126" value="/turtle1/cmd_vel" style="rounded=1;whiteSpace=wrap;html=1;fillColor=#e3c800;strokeColor=#B09500;fontColor=#000000;fontSize=18;fontStyle=1" parent="1" vertex="1">
                    <mxGeometry x="4490" y="480" width="180" height="70" as="geometry"/>
                </mxCell>
                <mxCell id="127" value="&lt;h1&gt;&lt;font&gt;Turtlesim in Publisher- Subscriber Model&lt;/font&gt;&lt;/h1&gt;" style="text;html=1;align=center;verticalAlign=middle;resizable=0;points=[];autosize=1;strokeColor=none;fillColor=none;fontFamily=Helvetica;fontSize=30;fontColor=default;labelBackgroundColor=default;" parent="1" vertex="1">
                    <mxGeometry x="3895" y="-120" width="1190" height="170" as="geometry"/>
                </mxCell>
                <mxCell id="128" value="" style="group" parent="1" vertex="1" connectable="0">
                    <mxGeometry x="4880" y="600" width="700" height="870" as="geometry"/>
                </mxCell>
                <mxCell id="129" value="" style="rounded=1;whiteSpace=wrap;html=1;fontFamily=Helvetica;fontSize=11;labelBackgroundColor=default;fillColor=#dae8fc;strokeColor=#6c8ebf;" parent="128" vertex="1">
                    <mxGeometry x="60" y="-20" width="580" height="500" as="geometry"/>
                </mxCell>
                <mxCell id="130" value="velocity_publisher" style="ellipse;whiteSpace=wrap;html=1;fillColor=#1ba1e2;strokeColor=#006EAF;fontColor=#ffffff;fontSize=22;fontStyle=1" parent="128" vertex="1">
                    <mxGeometry x="185" y="110" width="260" height="260" as="geometry"/>
                </mxCell>
                <mxCell id="152" value="&lt;pre style=&quot;box-sizing: border-box; line-height: 1.4; font-family: SFMono-Regular, Menlo, Monaco, Consolas, &amp;quot;Liberation Mono&amp;quot;, &amp;quot;Courier New&amp;quot;, Courier, monospace; margin-top: 0px; margin-bottom: 0px; padding: 12px; overflow: auto; color: rgb(64, 64, 64); text-align: start;&quot; id=&quot;codecell1&quot;&gt;turtle_teleop_key&lt;/pre&gt;" style="text;html=1;align=center;verticalAlign=middle;resizable=0;points=[];autosize=1;strokeColor=none;fillColor=none;fontFamily=Helvetica;fontSize=21;fontColor=default;fontStyle=1;labelBackgroundColor=none;" parent="128" vertex="1">
                    <mxGeometry x="90" y="10" width="260" height="70" as="geometry"/>
                </mxCell>
                <mxCell id="133" value="" style="group" parent="1" vertex="1" connectable="0">
                    <mxGeometry x="3620" y="350" width="660" height="1060" as="geometry"/>
                </mxCell>
                <mxCell id="134" value="" style="rounded=1;whiteSpace=wrap;html=1;fontFamily=Helvetica;fontSize=11;labelBackgroundColor=default;fillColor=#f8cecc;strokeColor=#b85450;" parent="133" vertex="1">
                    <mxGeometry x="-40" width="680" height="1060" as="geometry"/>
                </mxCell>
                <mxCell id="135" value="velocity_subscriber" style="ellipse;whiteSpace=wrap;html=1;fillColor=#f0a30a;fontColor=#000000;strokeColor=#BD7000;fontSize=22;fontStyle=1" parent="133" vertex="1">
                    <mxGeometry x="260" y="150" width="262.5" height="262.5" as="geometry"/>
                </mxCell>
                <mxCell id="137" value="pose_publisher" style="ellipse;whiteSpace=wrap;html=1;fillColor=#1ba1e2;strokeColor=#006EAF;fontColor=#ffffff;fontSize=22;fontStyle=1" parent="133" vertex="1">
                    <mxGeometry x="20" y="390" width="257.5" height="257.5" as="geometry"/>
                </mxCell>
                <mxCell id="138" value="color_sensor_publisher" style="ellipse;whiteSpace=wrap;html=1;fillColor=#1ba1e2;strokeColor=#006EAF;fontColor=#ffffff;fontSize=22;fontStyle=1" parent="133" vertex="1">
                    <mxGeometry x="270" y="670" width="270" height="270" as="geometry"/>
                </mxCell>
                <mxCell id="151" value="&lt;pre style=&quot;box-sizing: border-box; line-height: 1.4; font-family: SFMono-Regular, Menlo, Monaco, Consolas, &amp;quot;Liberation Mono&amp;quot;, &amp;quot;Courier New&amp;quot;, Courier, monospace; margin-top: 0px; margin-bottom: 0px; padding: 12px; overflow: auto; color: rgb(64, 64, 64); text-align: start;&quot; id=&quot;codecell1&quot;&gt;turtlesim_node&lt;/pre&gt;" style="text;html=1;align=center;verticalAlign=middle;resizable=0;points=[];autosize=1;strokeColor=none;fillColor=none;fontFamily=Helvetica;fontSize=21;fontColor=default;fontStyle=1;labelBackgroundColor=none;" parent="133" vertex="1">
                    <mxGeometry x="40" y="30" width="150" height="50" as="geometry"/>
                </mxCell>
                <mxCell id="139" style="edgeStyle=orthogonalEdgeStyle;html=1;entryX=1;entryY=0.5;entryDx=0;entryDy=0;curved=1;" parent="1" source="126" target="135" edge="1">
                    <mxGeometry relative="1" as="geometry"/>
                </mxCell>
                <mxCell id="140" value="geometry_msgs/msg/Twist" style="edgeLabel;html=1;align=center;verticalAlign=middle;resizable=0;points=[];fontFamily=Helvetica;fontSize=20;fontColor=default;labelBackgroundColor=default;" parent="139" vertex="1" connectable="0">
                    <mxGeometry x="-0.1433" y="13" relative="1" as="geometry">
                        <mxPoint x="6" y="42" as="offset"/>
                    </mxGeometry>
                </mxCell>
                <mxCell id="141" style="edgeStyle=orthogonalEdgeStyle;html=1;exitX=0;exitY=0.5;exitDx=0;exitDy=0;entryX=1;entryY=0.5;entryDx=0;entryDy=0;curved=1;" parent="1" source="130" target="126" edge="1">
                    <mxGeometry relative="1" as="geometry"/>
                </mxCell>
                <mxCell id="142" value="geometry_msgs/msg/Twist" style="edgeLabel;html=1;align=center;verticalAlign=middle;resizable=0;points=[];fontFamily=Helvetica;fontSize=20;fontColor=default;labelBackgroundColor=default;" parent="141" vertex="1" connectable="0">
                    <mxGeometry x="0.1697" y="-1" relative="1" as="geometry">
                        <mxPoint x="-54" as="offset"/>
                    </mxGeometry>
                </mxCell>
                <mxCell id="145" value="/turtle1/pose" style="rounded=1;whiteSpace=wrap;html=1;fillColor=#e3c800;strokeColor=#B09500;fontColor=#000000;fontSize=18;fontStyle=1" parent="1" vertex="1">
                    <mxGeometry x="4560" y="910" width="190" height="70" as="geometry"/>
                </mxCell>
                <mxCell id="146" style="edgeStyle=orthogonalEdgeStyle;html=1;entryX=0;entryY=0.5;entryDx=0;entryDy=0;curved=1;" parent="1" source="137" target="145" edge="1">
                    <mxGeometry relative="1" as="geometry"/>
                </mxCell>
                <mxCell id="147" value="turtlesim/msg/Pose" style="edgeLabel;html=1;align=center;verticalAlign=middle;resizable=0;points=[];fontSize=20;" parent="146" vertex="1" connectable="0">
                    <mxGeometry x="0.3404" y="-9" relative="1" as="geometry">
                        <mxPoint x="111" y="-9" as="offset"/>
                    </mxGeometry>
                </mxCell>
                <mxCell id="148" value="/turtle1/color_sensor" style="rounded=1;whiteSpace=wrap;html=1;fillColor=#e3c800;strokeColor=#B09500;fontColor=#000000;fontSize=18;fontStyle=1" parent="1" vertex="1">
                    <mxGeometry x="4600" y="1220" width="240" height="70" as="geometry"/>
                </mxCell>
                <mxCell id="149" style="edgeStyle=orthogonalEdgeStyle;html=1;exitX=1;exitY=0.5;exitDx=0;exitDy=0;entryX=0;entryY=0.5;entryDx=0;entryDy=0;curved=1;" parent="1" source="138" target="148" edge="1">
                    <mxGeometry relative="1" as="geometry"/>
                </mxCell>
                <mxCell id="150" value="turtlesim/msg/Color" style="edgeLabel;html=1;align=center;verticalAlign=middle;resizable=0;points=[];fontSize=20;" parent="149" vertex="1" connectable="0">
                    <mxGeometry x="0.3871" y="7" relative="1" as="geometry">
                        <mxPoint x="18" y="-8" as="offset"/>
                    </mxGeometry>
                </mxCell>
                <mxCell id="b4fPBCOD2fMkeWjCPWA5-152" value="msg_publisher" style="ellipse;whiteSpace=wrap;html=1;fillColor=#1ba1e2;strokeColor=#006EAF;fontColor=#ffffff;fontSize=16;fontStyle=1" parent="1" vertex="1">
                    <mxGeometry x="595" y="470" width="200" height="200" as="geometry"/>
                </mxCell>
            </root>
        </mxGraphModel>
    </diagram>
    <diagram name="2-Services" id="u6Zi9MRjnmSfeWyxMeOA">
        <mxGraphModel dx="15270" dy="10580" grid="1" gridSize="10" guides="1" tooltips="1" connect="1" arrows="1" fold="1" page="1" pageScale="1" pageWidth="850" pageHeight="1100" math="0" shadow="0">
            <root>
                <mxCell id="7trJmH735Tpelf56GsNn-0"/>
                <mxCell id="7trJmH735Tpelf56GsNn-1" parent="7trJmH735Tpelf56GsNn-0"/>
                <mxCell id="7trJmH735Tpelf56GsNn-2" value="" style="whiteSpace=wrap;html=1;fontFamily=Helvetica;fontSize=11;fontColor=default;labelBackgroundColor=default;movable=1;resizable=1;rotatable=1;deletable=1;editable=1;locked=0;connectable=1;" parent="7trJmH735Tpelf56GsNn-1" vertex="1">
                    <mxGeometry x="-630" y="-10" width="1780" height="1360" as="geometry"/>
                </mxCell>
                <mxCell id="7trJmH735Tpelf56GsNn-3" value="" style="rounded=1;whiteSpace=wrap;html=1;fontFamily=Helvetica;fontSize=11;labelBackgroundColor=default;fillColor=#f8cecc;strokeColor=#b85450;" parent="7trJmH735Tpelf56GsNn-1" vertex="1">
                    <mxGeometry x="-400" y="660" width="380" height="400" as="geometry"/>
                </mxCell>
                <mxCell id="7trJmH735Tpelf56GsNn-4" value="" style="rounded=1;whiteSpace=wrap;html=1;fontFamily=Helvetica;fontSize=11;labelBackgroundColor=default;fillColor=#dae8fc;strokeColor=#6c8ebf;" parent="7trJmH735Tpelf56GsNn-1" vertex="1">
                    <mxGeometry x="580" y="330" width="380" height="400" as="geometry"/>
                </mxCell>
                <mxCell id="7trJmH735Tpelf56GsNn-7" value="Service&lt;br&gt;Server" style="ellipse;whiteSpace=wrap;html=1;fillColor=#1ba1e2;strokeColor=#006EAF;fontColor=#ffffff;fontSize=16;fontStyle=1" parent="7trJmH735Tpelf56GsNn-1" vertex="1">
                    <mxGeometry x="655" y="410" width="200" height="200" as="geometry"/>
                </mxCell>
                <mxCell id="7trJmH735Tpelf56GsNn-8" value="Service&lt;br&gt;Client" style="ellipse;whiteSpace=wrap;html=1;fillColor=#f0a30a;fontColor=#000000;strokeColor=#BD7000;fontSize=16;" parent="7trJmH735Tpelf56GsNn-1" vertex="1">
                    <mxGeometry x="-270" y="780" width="185" height="185" as="geometry"/>
                </mxCell>
                <mxCell id="7trJmH735Tpelf56GsNn-11" value="" style="rounded=1;whiteSpace=wrap;html=1;fillColor=#e3c800;strokeColor=#B09500;fontColor=#000000;" parent="7trJmH735Tpelf56GsNn-1" vertex="1">
                    <mxGeometry x="207.5" y="615" width="235" height="255" as="geometry"/>
                </mxCell>
                <mxCell id="7trJmH735Tpelf56GsNn-12" value="&lt;span&gt;NODE 1&lt;/span&gt;" style="text;html=1;align=center;verticalAlign=middle;resizable=0;points=[];autosize=1;strokeColor=none;fillColor=none;fontFamily=Helvetica;fontSize=21;fontColor=default;labelBackgroundColor=none;strokeWidth=3;fontStyle=1" parent="7trJmH735Tpelf56GsNn-1" vertex="1">
                    <mxGeometry x="615" y="350" width="100" height="40" as="geometry"/>
                </mxCell>
                <mxCell id="7trJmH735Tpelf56GsNn-13" value="&lt;span&gt;NODE 2&lt;/span&gt;" style="text;html=1;align=center;verticalAlign=middle;resizable=0;points=[];autosize=1;strokeColor=none;fillColor=none;fontFamily=Helvetica;fontSize=21;fontColor=default;labelBackgroundColor=none;strokeWidth=3;fontStyle=1" parent="7trJmH735Tpelf56GsNn-1" vertex="1">
                    <mxGeometry x="-370" y="680" width="100" height="40" as="geometry"/>
                </mxCell>
                <mxCell id="7trJmH735Tpelf56GsNn-14" value="&lt;h1&gt;&lt;font&gt;Server- Client Model&lt;/font&gt;&lt;/h1&gt;" style="text;html=1;align=center;verticalAlign=middle;resizable=0;points=[];autosize=1;strokeColor=none;fillColor=none;fontFamily=Helvetica;fontSize=30;fontColor=default;labelBackgroundColor=default;" parent="7trJmH735Tpelf56GsNn-1" vertex="1">
                    <mxGeometry x="-10" width="600" height="170" as="geometry"/>
                </mxCell>
                <mxCell id="7trJmH735Tpelf56GsNn-28" value="&lt;pre&gt;{Interface_type}&lt;/pre&gt;" style="text;html=1;align=center;verticalAlign=middle;resizable=0;points=[];autosize=1;strokeColor=none;fillColor=none;fontFamily=Helvetica;fontSize=11;fontColor=default;labelBackgroundColor=default;" parent="7trJmH735Tpelf56GsNn-1" vertex="1">
                    <mxGeometry x="485" y="740" width="130" height="50" as="geometry"/>
                </mxCell>
                <mxCell id="7trJmH735Tpelf56GsNn-29" value="&lt;pre&gt;{Interface_type}&lt;/pre&gt;" style="text;html=1;align=center;verticalAlign=middle;resizable=0;points=[];autosize=1;strokeColor=none;fillColor=none;fontFamily=Helvetica;fontSize=11;fontColor=default;labelBackgroundColor=default;" parent="7trJmH735Tpelf56GsNn-1" vertex="1">
                    <mxGeometry x="415" y="410" width="130" height="50" as="geometry"/>
                </mxCell>
                <mxCell id="jk82i36turT7LHC97Zau-0" value="Request" style="rounded=1;whiteSpace=wrap;html=1;fillColor=#76608a;fontColor=#ffffff;strokeColor=#432D57;" parent="7trJmH735Tpelf56GsNn-1" vertex="1">
                    <mxGeometry x="265" y="670" width="120" height="60" as="geometry"/>
                </mxCell>
                <mxCell id="jk82i36turT7LHC97Zau-2" value="Service" style="text;html=1;align=center;verticalAlign=middle;resizable=0;points=[];autosize=1;strokeColor=none;fillColor=none;fontSize=19;" parent="7trJmH735Tpelf56GsNn-1" vertex="1">
                    <mxGeometry x="290" y="615" width="90" height="40" as="geometry"/>
                </mxCell>
                <mxCell id="7trJmH735Tpelf56GsNn-5" style="edgeStyle=orthogonalEdgeStyle;html=1;entryX=1;entryY=0.5;entryDx=0;entryDy=0;curved=1;exitX=0;exitY=0;exitDx=0;exitDy=0;" parent="7trJmH735Tpelf56GsNn-1" source="7trJmH735Tpelf56GsNn-7" target="jk82i36turT7LHC97Zau-0" edge="1">
                    <mxGeometry relative="1" as="geometry">
                        <mxPoint x="655" y="510" as="sourcePoint"/>
                        <Array as="points">
                            <mxPoint x="440" y="439"/>
                            <mxPoint x="440" y="700"/>
                        </Array>
                    </mxGeometry>
                </mxCell>
                <mxCell id="7trJmH735Tpelf56GsNn-6" value="request_msg" style="edgeLabel;html=1;align=center;verticalAlign=middle;resizable=0;points=[];fontFamily=Helvetica;fontSize=15;fontColor=default;labelBackgroundColor=default;" parent="7trJmH735Tpelf56GsNn-5" vertex="1" connectable="0">
                    <mxGeometry x="0.1697" y="-1" relative="1" as="geometry">
                        <mxPoint x="56" y="-42" as="offset"/>
                    </mxGeometry>
                </mxCell>
                <mxCell id="7trJmH735Tpelf56GsNn-9" style="edgeStyle=orthogonalEdgeStyle;html=1;entryX=1;entryY=0;entryDx=0;entryDy=0;curved=1;exitX=0;exitY=0.5;exitDx=0;exitDy=0;" parent="7trJmH735Tpelf56GsNn-1" source="jk82i36turT7LHC97Zau-0" target="7trJmH735Tpelf56GsNn-8" edge="1">
                    <mxGeometry relative="1" as="geometry">
                        <Array as="points">
                            <mxPoint y="700"/>
                            <mxPoint y="807"/>
                        </Array>
                    </mxGeometry>
                </mxCell>
                <mxCell id="7trJmH735Tpelf56GsNn-10" value="&lt;span style=&quot;color: rgb(0, 0, 0); font-size: 15px;&quot;&gt;request_msg&lt;/span&gt;" style="edgeLabel;html=1;align=center;verticalAlign=middle;resizable=0;points=[];fontFamily=Helvetica;fontSize=16;fontColor=default;labelBackgroundColor=default;" parent="7trJmH735Tpelf56GsNn-9" vertex="1" connectable="0">
                    <mxGeometry x="-0.1433" y="13" relative="1" as="geometry">
                        <mxPoint as="offset"/>
                    </mxGeometry>
                </mxCell>
                <mxCell id="jk82i36turT7LHC97Zau-5" style="edgeStyle=orthogonalEdgeStyle;html=1;exitX=1;exitY=0.5;exitDx=0;exitDy=0;entryX=0;entryY=1;entryDx=0;entryDy=0;curved=1;" parent="7trJmH735Tpelf56GsNn-1" source="jk82i36turT7LHC97Zau-3" target="7trJmH735Tpelf56GsNn-7" edge="1">
                    <mxGeometry relative="1" as="geometry">
                        <Array as="points">
                            <mxPoint x="440" y="810"/>
                            <mxPoint x="440" y="720"/>
                            <mxPoint x="684" y="720"/>
                        </Array>
                    </mxGeometry>
                </mxCell>
                <mxCell id="jk82i36turT7LHC97Zau-6" value="response_msg" style="edgeLabel;html=1;align=center;verticalAlign=middle;resizable=0;points=[];fontFamily=Helvetica;fontSize=15;fontColor=default;labelBackgroundColor=default;fillColor=none;gradientColor=none;" parent="jk82i36turT7LHC97Zau-5" vertex="1" connectable="0">
                    <mxGeometry x="0.0012" y="6" relative="1" as="geometry">
                        <mxPoint x="-35" y="6" as="offset"/>
                    </mxGeometry>
                </mxCell>
                <mxCell id="jk82i36turT7LHC97Zau-3" value="Response" style="rounded=1;whiteSpace=wrap;html=1;fillColor=#76608a;fontColor=#ffffff;strokeColor=#432D57;" parent="7trJmH735Tpelf56GsNn-1" vertex="1">
                    <mxGeometry x="265" y="780" width="120" height="60" as="geometry"/>
                </mxCell>
                <mxCell id="jk82i36turT7LHC97Zau-4" style="edgeStyle=orthogonalEdgeStyle;html=1;exitX=1;exitY=1;exitDx=0;exitDy=0;entryX=0;entryY=0.5;entryDx=0;entryDy=0;curved=1;" parent="7trJmH735Tpelf56GsNn-1" source="7trJmH735Tpelf56GsNn-8" target="jk82i36turT7LHC97Zau-3" edge="1">
                    <mxGeometry relative="1" as="geometry"/>
                </mxCell>
                <mxCell id="jk82i36turT7LHC97Zau-7" value="&lt;span style=&quot;color: rgb(0, 0, 0); font-size: 15px;&quot;&gt;response_msg&lt;/span&gt;" style="edgeLabel;html=1;align=center;verticalAlign=middle;resizable=0;points=[];" parent="jk82i36turT7LHC97Zau-4" vertex="1" connectable="0">
                    <mxGeometry x="0.1202" y="-1" relative="1" as="geometry">
                        <mxPoint y="1" as="offset"/>
                    </mxGeometry>
                </mxCell>
                <mxCell id="JqvngfZ4Gw1TeKTyGAZd-0" value="" style="whiteSpace=wrap;html=1;fontFamily=Helvetica;fontSize=11;fontColor=default;labelBackgroundColor=default;movable=1;resizable=1;rotatable=1;deletable=1;editable=1;locked=0;connectable=1;" parent="7trJmH735Tpelf56GsNn-1" vertex="1">
                    <mxGeometry x="1310" y="-500" width="3730" height="2530" as="geometry"/>
                </mxCell>
                <mxCell id="JqvngfZ4Gw1TeKTyGAZd-1" value="" style="rounded=1;whiteSpace=wrap;html=1;fontFamily=Helvetica;fontSize=11;labelBackgroundColor=default;fillColor=#f8cecc;strokeColor=#b85450;" parent="7trJmH735Tpelf56GsNn-1" vertex="1">
                    <mxGeometry x="2040" y="100" width="640" height="590" as="geometry"/>
                </mxCell>
                <mxCell id="JqvngfZ4Gw1TeKTyGAZd-2" value="" style="rounded=1;whiteSpace=wrap;html=1;fontFamily=Helvetica;fontSize=11;labelBackgroundColor=default;fillColor=#dae8fc;strokeColor=#6c8ebf;" parent="7trJmH735Tpelf56GsNn-1" vertex="1">
                    <mxGeometry x="3580" y="160" width="820" height="950" as="geometry"/>
                </mxCell>
                <mxCell id="JqvngfZ4Gw1TeKTyGAZd-3" value="Service1&lt;br&gt;Server" style="ellipse;whiteSpace=wrap;html=1;fillColor=#1ba1e2;strokeColor=#006EAF;fontColor=#ffffff;fontSize=30;fontStyle=1" parent="7trJmH735Tpelf56GsNn-1" vertex="1">
                    <mxGeometry x="3860" y="300" width="280" height="280" as="geometry"/>
                </mxCell>
                <mxCell id="JqvngfZ4Gw1TeKTyGAZd-4" value="Service1&lt;br&gt;Client" style="ellipse;whiteSpace=wrap;html=1;fillColor=#f0a30a;fontColor=#000000;strokeColor=#BD7000;fontSize=30;fontStyle=1" parent="7trJmH735Tpelf56GsNn-1" vertex="1">
                    <mxGeometry x="2195" y="285" width="255" height="255" as="geometry"/>
                </mxCell>
                <mxCell id="JqvngfZ4Gw1TeKTyGAZd-6" value="&lt;span&gt;NODE 1&lt;/span&gt;" style="text;html=1;align=center;verticalAlign=middle;resizable=0;points=[];autosize=1;strokeColor=none;fillColor=none;fontFamily=Helvetica;fontSize=40;fontColor=default;labelBackgroundColor=none;strokeWidth=3;fontStyle=1;" parent="7trJmH735Tpelf56GsNn-1" vertex="1">
                    <mxGeometry x="4200" y="210" width="100" height="40" as="geometry"/>
                </mxCell>
                <mxCell id="JqvngfZ4Gw1TeKTyGAZd-7" value="&lt;span&gt;NODE 2&lt;/span&gt;" style="text;html=1;align=center;verticalAlign=middle;resizable=0;points=[];autosize=1;strokeColor=none;fillColor=none;fontFamily=Helvetica;fontSize=40;fontColor=default;labelBackgroundColor=none;strokeWidth=3;fontStyle=1" parent="7trJmH735Tpelf56GsNn-1" vertex="1">
                    <mxGeometry x="2080" y="120" width="170" height="60" as="geometry"/>
                </mxCell>
                <mxCell id="JqvngfZ4Gw1TeKTyGAZd-8" value="&lt;h1&gt;&lt;font&gt;Multi Server- Client Model&lt;/font&gt;&lt;/h1&gt;" style="text;html=1;align=center;verticalAlign=middle;resizable=0;points=[];autosize=1;strokeColor=none;fillColor=none;fontFamily=Helvetica;fontSize=30;fontColor=default;labelBackgroundColor=default;" parent="7trJmH735Tpelf56GsNn-1" vertex="1">
                    <mxGeometry x="2860" y="-490" width="760" height="170" as="geometry"/>
                </mxCell>
                <mxCell id="JqvngfZ4Gw1TeKTyGAZd-22" value="Service2&lt;br&gt;Server" style="ellipse;whiteSpace=wrap;html=1;fillColor=#1ba1e2;strokeColor=#006EAF;fontColor=#ffffff;fontSize=30;fontStyle=1" parent="7trJmH735Tpelf56GsNn-1" vertex="1">
                    <mxGeometry x="3895" y="750" width="280" height="280" as="geometry"/>
                </mxCell>
                <mxCell id="JqvngfZ4Gw1TeKTyGAZd-28" value="" style="rounded=1;whiteSpace=wrap;html=1;fontFamily=Helvetica;fontSize=11;labelBackgroundColor=default;fillColor=#f8cecc;strokeColor=#b85450;" parent="7trJmH735Tpelf56GsNn-1" vertex="1">
                    <mxGeometry x="2040" y="955" width="640" height="590" as="geometry"/>
                </mxCell>
                <mxCell id="JqvngfZ4Gw1TeKTyGAZd-29" value="Service2&lt;br&gt;Client" style="ellipse;whiteSpace=wrap;html=1;fillColor=#f0a30a;fontColor=#000000;strokeColor=#BD7000;fontSize=30;fontStyle=1" parent="7trJmH735Tpelf56GsNn-1" vertex="1">
                    <mxGeometry x="2230" y="1160" width="260" height="260" as="geometry"/>
                </mxCell>
                <mxCell id="JqvngfZ4Gw1TeKTyGAZd-30" value="&lt;span&gt;NODE 3&lt;/span&gt;" style="text;html=1;align=center;verticalAlign=middle;resizable=0;points=[];autosize=1;strokeColor=none;fillColor=none;fontFamily=Helvetica;fontSize=40;fontColor=default;labelBackgroundColor=none;strokeWidth=3;fontStyle=1" parent="7trJmH735Tpelf56GsNn-1" vertex="1">
                    <mxGeometry x="2080" y="980" width="170" height="60" as="geometry"/>
                </mxCell>
                <mxCell id="JqvngfZ4Gw1TeKTyGAZd-40" value="" style="group" parent="7trJmH735Tpelf56GsNn-1" vertex="1" connectable="0">
                    <mxGeometry x="3020" y="465" width="235" height="255" as="geometry"/>
                </mxCell>
                <mxCell id="JqvngfZ4Gw1TeKTyGAZd-5" value="" style="rounded=1;whiteSpace=wrap;html=1;fillColor=#e3c800;strokeColor=#B09500;fontColor=#000000;fontSize=20;fontStyle=1" parent="JqvngfZ4Gw1TeKTyGAZd-40" vertex="1">
                    <mxGeometry width="235" height="255" as="geometry"/>
                </mxCell>
                <mxCell id="JqvngfZ4Gw1TeKTyGAZd-11" value="Request" style="rounded=1;whiteSpace=wrap;html=1;fillColor=#76608a;fontColor=#ffffff;strokeColor=#432D57;fontSize=20;fontStyle=1" parent="JqvngfZ4Gw1TeKTyGAZd-40" vertex="1">
                    <mxGeometry x="57.5" y="55" width="120" height="60" as="geometry"/>
                </mxCell>
                <mxCell id="JqvngfZ4Gw1TeKTyGAZd-12" value="Service1" style="text;html=1;align=center;verticalAlign=middle;resizable=0;points=[];autosize=1;strokeColor=none;fillColor=none;fontSize=20;fontStyle=1" parent="JqvngfZ4Gw1TeKTyGAZd-40" vertex="1">
                    <mxGeometry x="67.5" width="100" height="40" as="geometry"/>
                </mxCell>
                <mxCell id="JqvngfZ4Gw1TeKTyGAZd-19" value="Response" style="rounded=1;whiteSpace=wrap;html=1;fillColor=#76608a;fontColor=#ffffff;strokeColor=#432D57;fontSize=20;fontStyle=1" parent="JqvngfZ4Gw1TeKTyGAZd-40" vertex="1">
                    <mxGeometry x="57.5" y="165" width="120" height="60" as="geometry"/>
                </mxCell>
                <mxCell id="JqvngfZ4Gw1TeKTyGAZd-20" style="edgeStyle=orthogonalEdgeStyle;html=1;exitX=1;exitY=1;exitDx=0;exitDy=0;entryX=0;entryY=0.5;entryDx=0;entryDy=0;curved=1;" parent="7trJmH735Tpelf56GsNn-1" source="JqvngfZ4Gw1TeKTyGAZd-4" target="JqvngfZ4Gw1TeKTyGAZd-19" edge="1">
                    <mxGeometry relative="1" as="geometry"/>
                </mxCell>
                <mxCell id="JqvngfZ4Gw1TeKTyGAZd-21" value="&lt;span style=&quot;color: rgb(0, 0, 0);&quot;&gt;response_msg&lt;/span&gt;" style="edgeLabel;html=1;align=center;verticalAlign=middle;resizable=0;points=[];fontSize=20;fontStyle=1" parent="JqvngfZ4Gw1TeKTyGAZd-20" vertex="1" connectable="0">
                    <mxGeometry x="0.1202" y="-1" relative="1" as="geometry">
                        <mxPoint y="1" as="offset"/>
                    </mxGeometry>
                </mxCell>
                <mxCell id="JqvngfZ4Gw1TeKTyGAZd-41" value="" style="group" parent="7trJmH735Tpelf56GsNn-1" vertex="1" connectable="0">
                    <mxGeometry x="2980" y="960" width="235" height="255" as="geometry"/>
                </mxCell>
                <mxCell id="JqvngfZ4Gw1TeKTyGAZd-24" value="" style="rounded=1;whiteSpace=wrap;html=1;fillColor=#e3c800;strokeColor=#B09500;fontColor=#000000;fontSize=20;fontStyle=1" parent="JqvngfZ4Gw1TeKTyGAZd-41" vertex="1">
                    <mxGeometry width="235" height="255" as="geometry"/>
                </mxCell>
                <mxCell id="JqvngfZ4Gw1TeKTyGAZd-25" value="Request" style="rounded=1;whiteSpace=wrap;html=1;fillColor=#76608a;fontColor=#ffffff;strokeColor=#432D57;fontSize=20;fontStyle=1" parent="JqvngfZ4Gw1TeKTyGAZd-41" vertex="1">
                    <mxGeometry x="57.5" y="55" width="120" height="60" as="geometry"/>
                </mxCell>
                <mxCell id="JqvngfZ4Gw1TeKTyGAZd-26" value="Service2" style="text;html=1;align=center;verticalAlign=middle;resizable=0;points=[];autosize=1;strokeColor=none;fillColor=none;fontSize=20;fontStyle=1" parent="JqvngfZ4Gw1TeKTyGAZd-41" vertex="1">
                    <mxGeometry x="67.5" width="100" height="40" as="geometry"/>
                </mxCell>
                <mxCell id="JqvngfZ4Gw1TeKTyGAZd-27" value="Response" style="rounded=1;whiteSpace=wrap;html=1;fillColor=#76608a;fontColor=#ffffff;strokeColor=#432D57;fontSize=20;fontStyle=1" parent="JqvngfZ4Gw1TeKTyGAZd-41" vertex="1">
                    <mxGeometry x="57.5" y="165" width="120" height="60" as="geometry"/>
                </mxCell>
                <mxCell id="JqvngfZ4Gw1TeKTyGAZd-15" style="edgeStyle=orthogonalEdgeStyle;html=1;entryX=1;entryY=0;entryDx=0;entryDy=0;curved=1;exitX=0;exitY=0.5;exitDx=0;exitDy=0;" parent="7trJmH735Tpelf56GsNn-1" source="JqvngfZ4Gw1TeKTyGAZd-11" target="JqvngfZ4Gw1TeKTyGAZd-4" edge="1">
                    <mxGeometry relative="1" as="geometry">
                        <Array as="points">
                            <mxPoint x="2920" y="550"/>
                            <mxPoint x="2920" y="322"/>
                        </Array>
                    </mxGeometry>
                </mxCell>
                <mxCell id="JqvngfZ4Gw1TeKTyGAZd-16" value="&lt;span style=&quot;color: rgb(0, 0, 0);&quot;&gt;request_msg&lt;/span&gt;" style="edgeLabel;html=1;align=center;verticalAlign=middle;resizable=0;points=[];fontFamily=Helvetica;fontSize=20;fontColor=default;labelBackgroundColor=default;fontStyle=1" parent="JqvngfZ4Gw1TeKTyGAZd-15" vertex="1" connectable="0">
                    <mxGeometry x="-0.1433" y="13" relative="1" as="geometry">
                        <mxPoint x="-57" y="45" as="offset"/>
                    </mxGeometry>
                </mxCell>
                <mxCell id="JqvngfZ4Gw1TeKTyGAZd-17" style="edgeStyle=orthogonalEdgeStyle;html=1;exitX=1;exitY=0.5;exitDx=0;exitDy=0;entryX=0;entryY=1;entryDx=0;entryDy=0;curved=1;" parent="7trJmH735Tpelf56GsNn-1" source="JqvngfZ4Gw1TeKTyGAZd-19" target="JqvngfZ4Gw1TeKTyGAZd-3" edge="1">
                    <mxGeometry relative="1" as="geometry">
                        <Array as="points">
                            <mxPoint x="3360" y="660"/>
                            <mxPoint x="3360" y="590"/>
                            <mxPoint x="3901" y="590"/>
                        </Array>
                    </mxGeometry>
                </mxCell>
                <mxCell id="JqvngfZ4Gw1TeKTyGAZd-18" value="response_msg" style="edgeLabel;html=1;align=center;verticalAlign=middle;resizable=0;points=[];fontFamily=Helvetica;fontSize=20;fontColor=default;labelBackgroundColor=default;fillColor=none;gradientColor=none;fontStyle=1" parent="JqvngfZ4Gw1TeKTyGAZd-17" vertex="1" connectable="0">
                    <mxGeometry x="0.0012" y="6" relative="1" as="geometry">
                        <mxPoint x="-81" y="17" as="offset"/>
                    </mxGeometry>
                </mxCell>
                <mxCell id="JqvngfZ4Gw1TeKTyGAZd-13" style="edgeStyle=orthogonalEdgeStyle;html=1;entryX=1;entryY=0.5;entryDx=0;entryDy=0;curved=1;exitX=0;exitY=0;exitDx=0;exitDy=0;" parent="7trJmH735Tpelf56GsNn-1" source="JqvngfZ4Gw1TeKTyGAZd-3" target="JqvngfZ4Gw1TeKTyGAZd-11" edge="1">
                    <mxGeometry relative="1" as="geometry">
                        <mxPoint x="3575" y="360" as="sourcePoint"/>
                        <Array as="points">
                            <mxPoint x="3360" y="326"/>
                            <mxPoint x="3360" y="550"/>
                        </Array>
                    </mxGeometry>
                </mxCell>
                <mxCell id="JqvngfZ4Gw1TeKTyGAZd-14" value="request_msg" style="edgeLabel;html=1;align=center;verticalAlign=middle;resizable=0;points=[];fontFamily=Helvetica;fontSize=20;fontColor=default;labelBackgroundColor=default;fontStyle=1" parent="JqvngfZ4Gw1TeKTyGAZd-13" vertex="1" connectable="0">
                    <mxGeometry x="0.1697" y="-1" relative="1" as="geometry">
                        <mxPoint x="26" y="55" as="offset"/>
                    </mxGeometry>
                </mxCell>
                <mxCell id="JqvngfZ4Gw1TeKTyGAZd-33" style="edgeStyle=orthogonalEdgeStyle;html=1;exitX=1;exitY=0.5;exitDx=0;exitDy=0;entryX=0;entryY=1;entryDx=0;entryDy=0;curved=1;" parent="7trJmH735Tpelf56GsNn-1" source="JqvngfZ4Gw1TeKTyGAZd-27" target="JqvngfZ4Gw1TeKTyGAZd-22" edge="1">
                    <mxGeometry relative="1" as="geometry"/>
                </mxCell>
                <mxCell id="JqvngfZ4Gw1TeKTyGAZd-39" value="&lt;span style=&quot;color: rgb(0, 0, 0); font-size: 20px; font-weight: 700;&quot;&gt;response_msg&lt;/span&gt;" style="edgeLabel;html=1;align=center;verticalAlign=middle;resizable=0;points=[];" parent="JqvngfZ4Gw1TeKTyGAZd-33" vertex="1" connectable="0">
                    <mxGeometry x="-0.4048" y="1" relative="1" as="geometry">
                        <mxPoint x="3" y="1" as="offset"/>
                    </mxGeometry>
                </mxCell>
                <mxCell id="JqvngfZ4Gw1TeKTyGAZd-35" style="edgeStyle=orthogonalEdgeStyle;html=1;exitX=1;exitY=1;exitDx=0;exitDy=0;entryX=0;entryY=0.5;entryDx=0;entryDy=0;curved=1;" parent="7trJmH735Tpelf56GsNn-1" source="JqvngfZ4Gw1TeKTyGAZd-29" target="JqvngfZ4Gw1TeKTyGAZd-27" edge="1">
                    <mxGeometry relative="1" as="geometry"/>
                </mxCell>
                <mxCell id="JqvngfZ4Gw1TeKTyGAZd-38" value="&lt;span style=&quot;color: rgb(0, 0, 0); font-size: 20px; font-weight: 700;&quot;&gt;response_msg&lt;/span&gt;" style="edgeLabel;html=1;align=center;verticalAlign=middle;resizable=0;points=[];" parent="JqvngfZ4Gw1TeKTyGAZd-35" vertex="1" connectable="0">
                    <mxGeometry x="0.0992" y="-4" relative="1" as="geometry">
                        <mxPoint as="offset"/>
                    </mxGeometry>
                </mxCell>
                <mxCell id="JqvngfZ4Gw1TeKTyGAZd-31" style="edgeStyle=orthogonalEdgeStyle;html=1;exitX=0;exitY=0;exitDx=0;exitDy=0;entryX=1;entryY=0.5;entryDx=0;entryDy=0;curved=1;" parent="7trJmH735Tpelf56GsNn-1" source="JqvngfZ4Gw1TeKTyGAZd-22" target="JqvngfZ4Gw1TeKTyGAZd-25" edge="1">
                    <mxGeometry relative="1" as="geometry"/>
                </mxCell>
                <mxCell id="JqvngfZ4Gw1TeKTyGAZd-36" value="&lt;span style=&quot;color: rgb(0, 0, 0); font-size: 20px; font-weight: 700;&quot;&gt;request_msg&lt;/span&gt;" style="edgeLabel;html=1;align=center;verticalAlign=middle;resizable=0;points=[];" parent="JqvngfZ4Gw1TeKTyGAZd-31" vertex="1" connectable="0">
                    <mxGeometry x="0.4713" y="-26" relative="1" as="geometry">
                        <mxPoint x="-25" y="1" as="offset"/>
                    </mxGeometry>
                </mxCell>
                <mxCell id="JqvngfZ4Gw1TeKTyGAZd-34" style="edgeStyle=orthogonalEdgeStyle;html=1;exitX=0;exitY=0.5;exitDx=0;exitDy=0;entryX=1;entryY=0;entryDx=0;entryDy=0;curved=1;" parent="7trJmH735Tpelf56GsNn-1" source="JqvngfZ4Gw1TeKTyGAZd-25" target="JqvngfZ4Gw1TeKTyGAZd-29" edge="1">
                    <mxGeometry relative="1" as="geometry">
                        <Array as="points">
                            <mxPoint x="2452" y="1045"/>
                        </Array>
                    </mxGeometry>
                </mxCell>
                <mxCell id="JqvngfZ4Gw1TeKTyGAZd-37" value="&lt;span style=&quot;color: rgb(0, 0, 0); font-size: 20px; font-weight: 700;&quot;&gt;request_msg&lt;/span&gt;" style="edgeLabel;html=1;align=center;verticalAlign=middle;resizable=0;points=[];" parent="JqvngfZ4Gw1TeKTyGAZd-34" vertex="1" connectable="0">
                    <mxGeometry x="-0.2988" y="5" relative="1" as="geometry">
                        <mxPoint x="1" as="offset"/>
                    </mxGeometry>
                </mxCell>
                <mxCell id="BFE8A_c0GuwXJZfaG0Pr-0" value="" style="whiteSpace=wrap;html=1;fontFamily=Helvetica;fontSize=11;fontColor=default;labelBackgroundColor=default;movable=1;resizable=1;rotatable=1;deletable=1;editable=1;locked=0;connectable=1;" parent="7trJmH735Tpelf56GsNn-1" vertex="1">
                    <mxGeometry x="790" y="2050" width="4870" height="2850" as="geometry"/>
                </mxCell>
                <mxCell id="BFE8A_c0GuwXJZfaG0Pr-1" value="" style="rounded=1;whiteSpace=wrap;html=1;fontFamily=Helvetica;fontSize=11;labelBackgroundColor=default;fillColor=#f8cecc;strokeColor=#b85450;" parent="7trJmH735Tpelf56GsNn-1" vertex="1">
                    <mxGeometry x="1960" y="2780" width="680" height="590" as="geometry"/>
                </mxCell>
                <mxCell id="BFE8A_c0GuwXJZfaG0Pr-2" value="" style="rounded=1;whiteSpace=wrap;html=1;fontFamily=Helvetica;fontSize=11;labelBackgroundColor=default;fillColor=#dae8fc;strokeColor=#6c8ebf;" parent="7trJmH735Tpelf56GsNn-1" vertex="1">
                    <mxGeometry x="3540" y="2840" width="820" height="950" as="geometry"/>
                </mxCell>
                <mxCell id="BFE8A_c0GuwXJZfaG0Pr-3" value="SpawnService&lt;br&gt;Server" style="ellipse;whiteSpace=wrap;html=1;fillColor=#1ba1e2;strokeColor=#006EAF;fontColor=#ffffff;fontSize=30;fontStyle=1" parent="7trJmH735Tpelf56GsNn-1" vertex="1">
                    <mxGeometry x="3820" y="2980" width="280" height="280" as="geometry"/>
                </mxCell>
                <mxCell id="BFE8A_c0GuwXJZfaG0Pr-4" value="SpawnService&lt;br&gt;Client" style="ellipse;whiteSpace=wrap;html=1;fillColor=#f0a30a;fontColor=#000000;strokeColor=#BD7000;fontSize=30;fontStyle=1" parent="7trJmH735Tpelf56GsNn-1" vertex="1">
                    <mxGeometry x="2155" y="2965" width="255" height="255" as="geometry"/>
                </mxCell>
                <mxCell id="BFE8A_c0GuwXJZfaG0Pr-5" value="&lt;span&gt;Turtlesim Node&lt;/span&gt;" style="text;html=1;align=center;verticalAlign=middle;resizable=0;points=[];autosize=1;strokeColor=none;fillColor=none;fontFamily=Helvetica;fontSize=40;fontColor=default;labelBackgroundColor=none;strokeWidth=3;fontStyle=1;" parent="7trJmH735Tpelf56GsNn-1" vertex="1">
                    <mxGeometry x="3815" y="2860" width="290" height="60" as="geometry"/>
                </mxCell>
                <mxCell id="BFE8A_c0GuwXJZfaG0Pr-6" value="&lt;span&gt;Spawn Client Node&amp;nbsp;&lt;/span&gt;" style="text;html=1;align=center;verticalAlign=middle;resizable=0;points=[];autosize=1;strokeColor=none;fillColor=none;fontFamily=Helvetica;fontSize=40;fontColor=default;labelBackgroundColor=none;strokeWidth=3;fontStyle=1" parent="7trJmH735Tpelf56GsNn-1" vertex="1">
                    <mxGeometry x="2110" y="2800" width="380" height="60" as="geometry"/>
                </mxCell>
                <mxCell id="BFE8A_c0GuwXJZfaG0Pr-7" value="&lt;h1&gt;&lt;font&gt;Multi Server- Client Turtlesim&lt;/font&gt;&lt;/h1&gt;" style="text;html=1;align=center;verticalAlign=middle;resizable=0;points=[];autosize=1;strokeColor=none;fillColor=none;fontFamily=Helvetica;fontSize=30;fontColor=default;labelBackgroundColor=default;" parent="7trJmH735Tpelf56GsNn-1" vertex="1">
                    <mxGeometry x="2775" y="2190" width="850" height="170" as="geometry"/>
                </mxCell>
                <mxCell id="BFE8A_c0GuwXJZfaG0Pr-8" value="ClearService&lt;br&gt;Server" style="ellipse;whiteSpace=wrap;html=1;fillColor=#1ba1e2;strokeColor=#006EAF;fontColor=#ffffff;fontSize=30;fontStyle=1" parent="7trJmH735Tpelf56GsNn-1" vertex="1">
                    <mxGeometry x="3855" y="3430" width="280" height="280" as="geometry"/>
                </mxCell>
                <mxCell id="BFE8A_c0GuwXJZfaG0Pr-9" value="" style="rounded=1;whiteSpace=wrap;html=1;fontFamily=Helvetica;fontSize=11;labelBackgroundColor=default;fillColor=#f8cecc;strokeColor=#b85450;" parent="7trJmH735Tpelf56GsNn-1" vertex="1">
                    <mxGeometry x="2000" y="3635" width="640" height="590" as="geometry"/>
                </mxCell>
                <mxCell id="BFE8A_c0GuwXJZfaG0Pr-10" value="ClearService&lt;br&gt;Client" style="ellipse;whiteSpace=wrap;html=1;fillColor=#f0a30a;fontColor=#000000;strokeColor=#BD7000;fontSize=30;fontStyle=1" parent="7trJmH735Tpelf56GsNn-1" vertex="1">
                    <mxGeometry x="2190" y="3840" width="260" height="260" as="geometry"/>
                </mxCell>
                <mxCell id="BFE8A_c0GuwXJZfaG0Pr-12" value="" style="group" parent="7trJmH735Tpelf56GsNn-1" vertex="1" connectable="0">
                    <mxGeometry x="2980" y="3145" width="235" height="255" as="geometry"/>
                </mxCell>
                <mxCell id="BFE8A_c0GuwXJZfaG0Pr-13" value="" style="rounded=1;whiteSpace=wrap;html=1;fillColor=#e3c800;strokeColor=#B09500;fontColor=#000000;fontSize=20;fontStyle=1" parent="BFE8A_c0GuwXJZfaG0Pr-12" vertex="1">
                    <mxGeometry width="235" height="255" as="geometry"/>
                </mxCell>
                <mxCell id="BFE8A_c0GuwXJZfaG0Pr-14" value="Request" style="rounded=1;whiteSpace=wrap;html=1;fillColor=#76608a;fontColor=#ffffff;strokeColor=#432D57;fontSize=20;fontStyle=1" parent="BFE8A_c0GuwXJZfaG0Pr-12" vertex="1">
                    <mxGeometry x="57.5" y="55" width="120" height="60" as="geometry"/>
                </mxCell>
                <mxCell id="BFE8A_c0GuwXJZfaG0Pr-15" value="/spawn" style="text;html=1;align=center;verticalAlign=middle;resizable=0;points=[];autosize=1;strokeColor=none;fillColor=none;fontSize=20;fontStyle=1" parent="BFE8A_c0GuwXJZfaG0Pr-12" vertex="1">
                    <mxGeometry x="72.5" width="90" height="40" as="geometry"/>
                </mxCell>
                <mxCell id="BFE8A_c0GuwXJZfaG0Pr-16" value="Response" style="rounded=1;whiteSpace=wrap;html=1;fillColor=#76608a;fontColor=#ffffff;strokeColor=#432D57;fontSize=20;fontStyle=1" parent="BFE8A_c0GuwXJZfaG0Pr-12" vertex="1">
                    <mxGeometry x="57.5" y="165" width="120" height="60" as="geometry"/>
                </mxCell>
                <mxCell id="BFE8A_c0GuwXJZfaG0Pr-17" style="edgeStyle=orthogonalEdgeStyle;html=1;exitX=1;exitY=1;exitDx=0;exitDy=0;entryX=0;entryY=0.5;entryDx=0;entryDy=0;curved=1;" parent="7trJmH735Tpelf56GsNn-1" source="BFE8A_c0GuwXJZfaG0Pr-4" target="BFE8A_c0GuwXJZfaG0Pr-16" edge="1">
                    <mxGeometry relative="1" as="geometry"/>
                </mxCell>
                <mxCell id="BFE8A_c0GuwXJZfaG0Pr-18" value="&lt;span style=&quot;color: rgb(0, 0, 0);&quot;&gt;response_msg&lt;/span&gt;" style="edgeLabel;html=1;align=center;verticalAlign=middle;resizable=0;points=[];fontSize=20;fontStyle=1" parent="BFE8A_c0GuwXJZfaG0Pr-17" vertex="1" connectable="0">
                    <mxGeometry x="0.1202" y="-1" relative="1" as="geometry">
                        <mxPoint y="1" as="offset"/>
                    </mxGeometry>
                </mxCell>
                <mxCell id="BFE8A_c0GuwXJZfaG0Pr-19" value="" style="group" parent="7trJmH735Tpelf56GsNn-1" vertex="1" connectable="0">
                    <mxGeometry x="2940" y="3640" width="235" height="255" as="geometry"/>
                </mxCell>
                <mxCell id="BFE8A_c0GuwXJZfaG0Pr-20" value="" style="rounded=1;whiteSpace=wrap;html=1;fillColor=#e3c800;strokeColor=#B09500;fontColor=#000000;fontSize=20;fontStyle=1" parent="BFE8A_c0GuwXJZfaG0Pr-19" vertex="1">
                    <mxGeometry width="235" height="255" as="geometry"/>
                </mxCell>
                <mxCell id="BFE8A_c0GuwXJZfaG0Pr-21" value="Request" style="rounded=1;whiteSpace=wrap;html=1;fillColor=#76608a;fontColor=#ffffff;strokeColor=#432D57;fontSize=20;fontStyle=1" parent="BFE8A_c0GuwXJZfaG0Pr-19" vertex="1">
                    <mxGeometry x="57.5" y="55" width="120" height="60" as="geometry"/>
                </mxCell>
                <mxCell id="BFE8A_c0GuwXJZfaG0Pr-22" value="/clear" style="text;html=1;align=center;verticalAlign=middle;resizable=0;points=[];autosize=1;strokeColor=none;fillColor=none;fontSize=20;fontStyle=1" parent="BFE8A_c0GuwXJZfaG0Pr-19" vertex="1">
                    <mxGeometry x="82.5" width="70" height="40" as="geometry"/>
                </mxCell>
                <mxCell id="BFE8A_c0GuwXJZfaG0Pr-23" value="Response" style="rounded=1;whiteSpace=wrap;html=1;fillColor=#76608a;fontColor=#ffffff;strokeColor=#432D57;fontSize=20;fontStyle=1" parent="BFE8A_c0GuwXJZfaG0Pr-19" vertex="1">
                    <mxGeometry x="57.5" y="165" width="120" height="60" as="geometry"/>
                </mxCell>
                <mxCell id="BFE8A_c0GuwXJZfaG0Pr-24" style="edgeStyle=orthogonalEdgeStyle;html=1;entryX=1;entryY=0;entryDx=0;entryDy=0;curved=1;exitX=0;exitY=0.5;exitDx=0;exitDy=0;" parent="7trJmH735Tpelf56GsNn-1" source="BFE8A_c0GuwXJZfaG0Pr-14" target="BFE8A_c0GuwXJZfaG0Pr-4" edge="1">
                    <mxGeometry relative="1" as="geometry">
                        <Array as="points">
                            <mxPoint x="2880" y="3230"/>
                            <mxPoint x="2880" y="3002"/>
                        </Array>
                    </mxGeometry>
                </mxCell>
                <mxCell id="BFE8A_c0GuwXJZfaG0Pr-25" value="&lt;span style=&quot;color: rgb(0, 0, 0);&quot;&gt;request_msg&lt;/span&gt;" style="edgeLabel;html=1;align=center;verticalAlign=middle;resizable=0;points=[];fontFamily=Helvetica;fontSize=20;fontColor=default;labelBackgroundColor=default;fontStyle=1" parent="BFE8A_c0GuwXJZfaG0Pr-24" vertex="1" connectable="0">
                    <mxGeometry x="-0.1433" y="13" relative="1" as="geometry">
                        <mxPoint x="-57" y="45" as="offset"/>
                    </mxGeometry>
                </mxCell>
                <mxCell id="BFE8A_c0GuwXJZfaG0Pr-26" style="edgeStyle=orthogonalEdgeStyle;html=1;exitX=1;exitY=0.5;exitDx=0;exitDy=0;entryX=0;entryY=1;entryDx=0;entryDy=0;curved=1;" parent="7trJmH735Tpelf56GsNn-1" source="BFE8A_c0GuwXJZfaG0Pr-16" target="BFE8A_c0GuwXJZfaG0Pr-3" edge="1">
                    <mxGeometry relative="1" as="geometry">
                        <Array as="points">
                            <mxPoint x="3320" y="3340"/>
                            <mxPoint x="3320" y="3270"/>
                            <mxPoint x="3861" y="3270"/>
                        </Array>
                    </mxGeometry>
                </mxCell>
                <mxCell id="BFE8A_c0GuwXJZfaG0Pr-27" value="response_msg" style="edgeLabel;html=1;align=center;verticalAlign=middle;resizable=0;points=[];fontFamily=Helvetica;fontSize=20;fontColor=default;labelBackgroundColor=default;fillColor=none;gradientColor=none;fontStyle=1" parent="BFE8A_c0GuwXJZfaG0Pr-26" vertex="1" connectable="0">
                    <mxGeometry x="0.0012" y="6" relative="1" as="geometry">
                        <mxPoint x="-81" y="17" as="offset"/>
                    </mxGeometry>
                </mxCell>
                <mxCell id="BFE8A_c0GuwXJZfaG0Pr-28" style="edgeStyle=orthogonalEdgeStyle;html=1;entryX=1;entryY=0.5;entryDx=0;entryDy=0;curved=1;exitX=0;exitY=0;exitDx=0;exitDy=0;" parent="7trJmH735Tpelf56GsNn-1" source="BFE8A_c0GuwXJZfaG0Pr-3" target="BFE8A_c0GuwXJZfaG0Pr-14" edge="1">
                    <mxGeometry relative="1" as="geometry">
                        <mxPoint x="3535" y="3040" as="sourcePoint"/>
                        <Array as="points">
                            <mxPoint x="3320" y="3006"/>
                            <mxPoint x="3320" y="3230"/>
                        </Array>
                    </mxGeometry>
                </mxCell>
                <mxCell id="BFE8A_c0GuwXJZfaG0Pr-29" value="request_msg" style="edgeLabel;html=1;align=center;verticalAlign=middle;resizable=0;points=[];fontFamily=Helvetica;fontSize=20;fontColor=default;labelBackgroundColor=default;fontStyle=1" parent="BFE8A_c0GuwXJZfaG0Pr-28" vertex="1" connectable="0">
                    <mxGeometry x="0.1697" y="-1" relative="1" as="geometry">
                        <mxPoint x="26" y="55" as="offset"/>
                    </mxGeometry>
                </mxCell>
                <mxCell id="BFE8A_c0GuwXJZfaG0Pr-30" style="edgeStyle=orthogonalEdgeStyle;html=1;exitX=1;exitY=0.5;exitDx=0;exitDy=0;entryX=0;entryY=1;entryDx=0;entryDy=0;curved=1;" parent="7trJmH735Tpelf56GsNn-1" source="BFE8A_c0GuwXJZfaG0Pr-23" target="BFE8A_c0GuwXJZfaG0Pr-8" edge="1">
                    <mxGeometry relative="1" as="geometry"/>
                </mxCell>
                <mxCell id="BFE8A_c0GuwXJZfaG0Pr-31" value="&lt;span style=&quot;color: rgb(0, 0, 0); font-size: 20px; font-weight: 700;&quot;&gt;response_msg&lt;/span&gt;" style="edgeLabel;html=1;align=center;verticalAlign=middle;resizable=0;points=[];" parent="BFE8A_c0GuwXJZfaG0Pr-30" vertex="1" connectable="0">
                    <mxGeometry x="-0.4048" y="1" relative="1" as="geometry">
                        <mxPoint x="3" y="1" as="offset"/>
                    </mxGeometry>
                </mxCell>
                <mxCell id="BFE8A_c0GuwXJZfaG0Pr-32" style="edgeStyle=orthogonalEdgeStyle;html=1;exitX=1;exitY=1;exitDx=0;exitDy=0;entryX=0;entryY=0.5;entryDx=0;entryDy=0;curved=1;" parent="7trJmH735Tpelf56GsNn-1" source="BFE8A_c0GuwXJZfaG0Pr-10" target="BFE8A_c0GuwXJZfaG0Pr-23" edge="1">
                    <mxGeometry relative="1" as="geometry"/>
                </mxCell>
                <mxCell id="BFE8A_c0GuwXJZfaG0Pr-33" value="&lt;span style=&quot;color: rgb(0, 0, 0); font-size: 20px; font-weight: 700;&quot;&gt;response_msg&lt;/span&gt;" style="edgeLabel;html=1;align=center;verticalAlign=middle;resizable=0;points=[];" parent="BFE8A_c0GuwXJZfaG0Pr-32" vertex="1" connectable="0">
                    <mxGeometry x="0.0992" y="-4" relative="1" as="geometry">
                        <mxPoint as="offset"/>
                    </mxGeometry>
                </mxCell>
                <mxCell id="BFE8A_c0GuwXJZfaG0Pr-34" style="edgeStyle=orthogonalEdgeStyle;html=1;exitX=0;exitY=0;exitDx=0;exitDy=0;entryX=1;entryY=0.5;entryDx=0;entryDy=0;curved=1;" parent="7trJmH735Tpelf56GsNn-1" source="BFE8A_c0GuwXJZfaG0Pr-8" target="BFE8A_c0GuwXJZfaG0Pr-21" edge="1">
                    <mxGeometry relative="1" as="geometry"/>
                </mxCell>
                <mxCell id="BFE8A_c0GuwXJZfaG0Pr-35" value="&lt;span style=&quot;color: rgb(0, 0, 0); font-size: 20px; font-weight: 700;&quot;&gt;request_msg&lt;/span&gt;" style="edgeLabel;html=1;align=center;verticalAlign=middle;resizable=0;points=[];" parent="BFE8A_c0GuwXJZfaG0Pr-34" vertex="1" connectable="0">
                    <mxGeometry x="0.4713" y="-26" relative="1" as="geometry">
                        <mxPoint x="-25" y="1" as="offset"/>
                    </mxGeometry>
                </mxCell>
                <mxCell id="BFE8A_c0GuwXJZfaG0Pr-36" style="edgeStyle=orthogonalEdgeStyle;html=1;exitX=0;exitY=0.5;exitDx=0;exitDy=0;entryX=1;entryY=0;entryDx=0;entryDy=0;curved=1;" parent="7trJmH735Tpelf56GsNn-1" source="BFE8A_c0GuwXJZfaG0Pr-21" target="BFE8A_c0GuwXJZfaG0Pr-10" edge="1">
                    <mxGeometry relative="1" as="geometry">
                        <Array as="points">
                            <mxPoint x="2412" y="3725"/>
                        </Array>
                    </mxGeometry>
                </mxCell>
                <mxCell id="BFE8A_c0GuwXJZfaG0Pr-37" value="&lt;span style=&quot;color: rgb(0, 0, 0); font-size: 20px; font-weight: 700;&quot;&gt;request_msg&lt;/span&gt;" style="edgeLabel;html=1;align=center;verticalAlign=middle;resizable=0;points=[];" parent="BFE8A_c0GuwXJZfaG0Pr-36" vertex="1" connectable="0">
                    <mxGeometry x="-0.2988" y="5" relative="1" as="geometry">
                        <mxPoint x="1" as="offset"/>
                    </mxGeometry>
                </mxCell>
                <mxCell id="BFE8A_c0GuwXJZfaG0Pr-38" value="&lt;span&gt;Clear Client Node&amp;nbsp;&lt;/span&gt;" style="text;html=1;align=center;verticalAlign=middle;resizable=0;points=[];autosize=1;strokeColor=none;fillColor=none;fontFamily=Helvetica;fontSize=40;fontColor=default;labelBackgroundColor=none;strokeWidth=3;fontStyle=1" parent="7trJmH735Tpelf56GsNn-1" vertex="1">
                    <mxGeometry x="2135" y="3660" width="350" height="60" as="geometry"/>
                </mxCell>
                <mxCell id="BFE8A_c0GuwXJZfaG0Pr-39" value="&lt;pre&gt;{Interface1_type}&lt;/pre&gt;" style="text;html=1;align=center;verticalAlign=middle;resizable=0;points=[];autosize=1;strokeColor=none;fillColor=none;fontFamily=Helvetica;fontSize=18;fontColor=default;labelBackgroundColor=default;fontStyle=1" parent="7trJmH735Tpelf56GsNn-1" vertex="1">
                    <mxGeometry x="3295" y="260" width="210" height="70" as="geometry"/>
                </mxCell>
                <mxCell id="BFE8A_c0GuwXJZfaG0Pr-41" value="&lt;pre&gt;{Interface1_type}&lt;/pre&gt;" style="text;html=1;align=center;verticalAlign=middle;resizable=0;points=[];autosize=1;strokeColor=none;fillColor=none;fontFamily=Helvetica;fontSize=18;fontColor=default;labelBackgroundColor=default;fontStyle=1" parent="7trJmH735Tpelf56GsNn-1" vertex="1">
                    <mxGeometry x="2655" y="660" width="210" height="70" as="geometry"/>
                </mxCell>
                <mxCell id="BFE8A_c0GuwXJZfaG0Pr-42" value="&lt;pre&gt;{Interface2_type}&lt;/pre&gt;" style="text;html=1;align=center;verticalAlign=middle;resizable=0;points=[];autosize=1;strokeColor=none;fillColor=none;fontFamily=Helvetica;fontSize=18;fontColor=default;labelBackgroundColor=default;fontStyle=1" parent="7trJmH735Tpelf56GsNn-1" vertex="1">
                    <mxGeometry x="3270" y="920" width="210" height="70" as="geometry"/>
                </mxCell>
                <mxCell id="BFE8A_c0GuwXJZfaG0Pr-45" value="&lt;pre&gt;{Interface2_type}&lt;/pre&gt;" style="text;html=1;align=center;verticalAlign=middle;resizable=0;points=[];autosize=1;strokeColor=none;fillColor=none;fontFamily=Helvetica;fontSize=18;fontColor=default;labelBackgroundColor=default;fontStyle=1" parent="7trJmH735Tpelf56GsNn-1" vertex="1">
                    <mxGeometry x="2765" y="1290" width="210" height="70" as="geometry"/>
                </mxCell>
                <mxCell id="BFE8A_c0GuwXJZfaG0Pr-46" value="&lt;pre&gt;&lt;br&gt;&lt;h2 style=&quot;color: rgb(51, 51, 51); font-family: Palatino, serif; text-align: left; white-space: normal;&quot;&gt;&lt;span class=&quot;filename&quot; style=&quot;padding: 5px; border: 1px solid rgb(51, 51, 51);&quot;&gt;turtlesim/Spawn.srv&lt;/span&gt;&lt;/h2&gt;&lt;br&gt;&lt;/pre&gt;" style="text;html=1;align=center;verticalAlign=middle;resizable=0;points=[];autosize=1;strokeColor=none;fillColor=none;fontFamily=Helvetica;fontSize=15;fontColor=default;labelBackgroundColor=none;fontStyle=1" parent="7trJmH735Tpelf56GsNn-1" vertex="1">
                    <mxGeometry x="3225" y="2915" width="230" height="140" as="geometry"/>
                </mxCell>
                <mxCell id="BFE8A_c0GuwXJZfaG0Pr-47" value="&lt;pre&gt;&lt;br&gt;&lt;h2 style=&quot;color: rgb(51, 51, 51); font-family: Palatino, serif; text-align: left; white-space: normal;&quot;&gt;&lt;span class=&quot;filename&quot; style=&quot;padding: 5px; border: 1px solid rgb(51, 51, 51);&quot;&gt;turtlesim/Spawn.srv&lt;/span&gt;&lt;/h2&gt;&lt;br&gt;&lt;/pre&gt;" style="text;html=1;align=center;verticalAlign=middle;resizable=0;points=[];autosize=1;strokeColor=none;fillColor=none;fontFamily=Helvetica;fontSize=15;fontColor=default;labelBackgroundColor=none;fontStyle=1" parent="7trJmH735Tpelf56GsNn-1" vertex="1">
                    <mxGeometry x="2630" y="3300" width="230" height="140" as="geometry"/>
                </mxCell>
                <mxCell id="BFE8A_c0GuwXJZfaG0Pr-52" value="&lt;pre&gt;&lt;h2 style=&quot;color: rgb(51, 51, 51); font-family: Palatino, serif; text-align: left; white-space: normal;&quot;&gt;&lt;span style=&quot;padding: 5px; border: 1px solid rgb(51, 51, 51);&quot; class=&quot;filename&quot;&gt;std_srvs/Empty.srv&lt;/span&gt;&lt;/h2&gt;&lt;/pre&gt;" style="text;html=1;align=center;verticalAlign=middle;resizable=0;points=[];autosize=1;strokeColor=none;fillColor=none;fontFamily=Helvetica;fontSize=15;fontColor=default;labelBackgroundColor=none;fontStyle=1" parent="7trJmH735Tpelf56GsNn-1" vertex="1">
                    <mxGeometry x="3235" y="3565" width="220" height="80" as="geometry"/>
                </mxCell>
                <mxCell id="BFE8A_c0GuwXJZfaG0Pr-53" value="&lt;pre&gt;&lt;h2 style=&quot;color: rgb(51, 51, 51); font-family: Palatino, serif; text-align: left; white-space: normal;&quot;&gt;&lt;span class=&quot;filename&quot; style=&quot;padding: 5px; border: 1px solid rgb(51, 51, 51);&quot;&gt;std_srvs/Empty.srv&lt;/span&gt;&lt;/h2&gt;&lt;/pre&gt;" style="text;html=1;align=center;verticalAlign=middle;resizable=0;points=[];autosize=1;strokeColor=none;fillColor=none;fontFamily=Helvetica;fontSize=15;fontColor=default;labelBackgroundColor=default;fontStyle=1" parent="7trJmH735Tpelf56GsNn-1" vertex="1">
                    <mxGeometry x="2740" y="3975" width="220" height="80" as="geometry"/>
                </mxCell>
            </root>
        </mxGraphModel>
    </diagram>
    <diagram id="oV8T9oZlh9TiqOxunPRy" name="param">
        <mxGraphModel dx="2923" dy="3253" grid="1" gridSize="10" guides="1" tooltips="1" connect="1" arrows="1" fold="1" page="1" pageScale="1" pageWidth="850" pageHeight="1100" math="0" shadow="0">
            <root>
                <mxCell id="0"/>
                <mxCell id="1" parent="0"/>
                <mxCell id="M7UYYNvp853XEV-Ke6MH-1" value="" style="whiteSpace=wrap;html=1;fontFamily=Helvetica;fontSize=11;fontColor=default;labelBackgroundColor=default;movable=0;resizable=0;rotatable=0;deletable=0;editable=0;locked=1;connectable=0;" vertex="1" parent="1">
                    <mxGeometry x="-400" y="-1580" width="1450" height="1230" as="geometry"/>
                </mxCell>
                <mxCell id="M7UYYNvp853XEV-Ke6MH-2" value="" style="rounded=1;whiteSpace=wrap;html=1;fontFamily=Helvetica;fontSize=11;labelBackgroundColor=default;fillColor=#dae8fc;strokeColor=#6c8ebf;" vertex="1" parent="1">
                    <mxGeometry x="405" y="-1240" width="380" height="620" as="geometry"/>
                </mxCell>
                <mxCell id="M7UYYNvp853XEV-Ke6MH-3" value="&lt;span&gt;NODE1&amp;nbsp;&lt;/span&gt;" style="text;html=1;align=center;verticalAlign=middle;resizable=0;points=[];autosize=1;strokeColor=none;fillColor=none;fontFamily=Helvetica;fontSize=21;fontColor=default;labelBackgroundColor=none;strokeWidth=3;fontStyle=1" vertex="1" parent="1">
                    <mxGeometry x="445" y="-1220" width="100" height="40" as="geometry"/>
                </mxCell>
                <mxCell id="M7UYYNvp853XEV-Ke6MH-4" value="&lt;h1&gt;&lt;font&gt;Single Node Model&lt;/font&gt;&lt;/h1&gt;" style="text;html=1;align=center;verticalAlign=middle;resizable=0;points=[];autosize=1;strokeColor=none;fillColor=none;fontFamily=Helvetica;fontSize=30;fontColor=default;labelBackgroundColor=default;" vertex="1" parent="1">
                    <mxGeometry x="20" y="-1570" width="560" height="170" as="geometry"/>
                </mxCell>
                <mxCell id="M7UYYNvp853XEV-Ke6MH-5" value="" style="group" vertex="1" connectable="0" parent="1">
                    <mxGeometry x="-130" y="-1230" width="380" height="500" as="geometry"/>
                </mxCell>
                <mxCell id="M7UYYNvp853XEV-Ke6MH-6" value="" style="rounded=1;whiteSpace=wrap;html=1;fontFamily=Helvetica;fontSize=11;labelBackgroundColor=default;fillColor=#f8cecc;strokeColor=#b85450;" vertex="1" parent="M7UYYNvp853XEV-Ke6MH-5">
                    <mxGeometry width="380" height="500" as="geometry"/>
                </mxCell>
                <mxCell id="M7UYYNvp853XEV-Ke6MH-7" value="&lt;span&gt;NODE2&amp;nbsp;&lt;/span&gt;" style="text;html=1;align=center;verticalAlign=middle;resizable=0;points=[];autosize=1;strokeColor=none;fillColor=none;fontFamily=Helvetica;fontSize=21;fontColor=default;labelBackgroundColor=none;strokeWidth=3;fontStyle=1" vertex="1" parent="M7UYYNvp853XEV-Ke6MH-5">
                    <mxGeometry x="20" y="30" width="100" height="40" as="geometry"/>
                </mxCell>
                <mxCell id="FrE4rUe5YdyAeCKvRlFz-5" value="" style="ellipse;whiteSpace=wrap;html=1;fillColor=#1ba1e2;strokeColor=#006EAF;fontColor=#ffffff;fontSize=30;fontStyle=1" vertex="1" parent="M7UYYNvp853XEV-Ke6MH-5">
                    <mxGeometry x="60" y="130" width="100" height="100" as="geometry"/>
                </mxCell>
                <mxCell id="FrE4rUe5YdyAeCKvRlFz-8" value="Paramters" style="text;html=1;align=center;verticalAlign=middle;resizable=0;points=[];autosize=1;strokeColor=none;fillColor=none;fontSize=20;fontStyle=1" vertex="1" parent="M7UYYNvp853XEV-Ke6MH-5">
                    <mxGeometry x="20" y="300" width="120" height="40" as="geometry"/>
                </mxCell>
                <mxCell id="FrE4rUe5YdyAeCKvRlFz-12" value="&lt;pre&gt;&lt;font style=&quot;font-size: 17px;&quot;&gt;camera_topic_name&lt;/font&gt;&lt;/pre&gt;" style="text;html=1;align=center;verticalAlign=middle;resizable=0;points=[];autosize=1;strokeColor=none;fillColor=none;" vertex="1" parent="M7UYYNvp853XEV-Ke6MH-5">
                    <mxGeometry x="25" y="340" width="200" height="60" as="geometry"/>
                </mxCell>
                <mxCell id="FrE4rUe5YdyAeCKvRlFz-13" value="&lt;pre&gt;&lt;font style=&quot;font-size: 17px;&quot;&gt;lidar_topic_name&lt;/font&gt;&lt;/pre&gt;" style="text;html=1;align=center;verticalAlign=middle;resizable=0;points=[];autosize=1;strokeColor=none;fillColor=none;" vertex="1" parent="M7UYYNvp853XEV-Ke6MH-5">
                    <mxGeometry x="25" y="380" width="190" height="60" as="geometry"/>
                </mxCell>
                <mxCell id="FrE4rUe5YdyAeCKvRlFz-14" value="&lt;pre&gt;&lt;font style=&quot;font-size: 17px;&quot;&gt;max_num_scan&lt;/font&gt;&lt;/pre&gt;" style="text;html=1;align=center;verticalAlign=middle;resizable=0;points=[];autosize=1;strokeColor=none;fillColor=none;" vertex="1" parent="M7UYYNvp853XEV-Ke6MH-5">
                    <mxGeometry x="25" y="420" width="150" height="60" as="geometry"/>
                </mxCell>
                <mxCell id="FrE4rUe5YdyAeCKvRlFz-2" value="" style="ellipse;whiteSpace=wrap;html=1;fillColor=#1ba1e2;strokeColor=#006EAF;fontColor=#ffffff;fontSize=30;fontStyle=1" vertex="1" parent="1">
                    <mxGeometry x="640" y="-1110" width="100" height="100" as="geometry"/>
                </mxCell>
                <mxCell id="FrE4rUe5YdyAeCKvRlFz-3" value="" style="ellipse;whiteSpace=wrap;html=1;fillColor=#fa6800;strokeColor=#C73500;fontColor=#000000;fontSize=30;fontStyle=1" vertex="1" parent="1">
                    <mxGeometry x="445" y="-1110" width="100" height="100" as="geometry"/>
                </mxCell>
                <mxCell id="FrE4rUe5YdyAeCKvRlFz-4" value="" style="ellipse;whiteSpace=wrap;html=1;fillColor=#fa6800;strokeColor=#C73500;fontColor=#000000;fontSize=30;fontStyle=1" vertex="1" parent="1">
                    <mxGeometry x="80" y="-1100" width="100" height="100" as="geometry"/>
                </mxCell>
                <mxCell id="FrE4rUe5YdyAeCKvRlFz-6" value="" style="ellipse;whiteSpace=wrap;html=1;fillColor=#1ba1e2;strokeColor=#006EAF;fontColor=#ffffff;fontSize=30;fontStyle=1" vertex="1" parent="1">
                    <mxGeometry x="550" y="-1010" width="100" height="100" as="geometry"/>
                </mxCell>
                <mxCell id="FrE4rUe5YdyAeCKvRlFz-7" value="Paramters" style="text;html=1;align=center;verticalAlign=middle;resizable=0;points=[];autosize=1;strokeColor=none;fillColor=none;fontSize=20;fontStyle=1" vertex="1" parent="1">
                    <mxGeometry x="405" y="-895" width="120" height="40" as="geometry"/>
                </mxCell>
                <mxCell id="FrE4rUe5YdyAeCKvRlFz-9" value="&lt;pre&gt;&lt;font style=&quot;font-size: 17px;&quot;&gt;input_topic_name&lt;/font&gt;&lt;/pre&gt;" style="text;html=1;align=center;verticalAlign=middle;resizable=0;points=[];autosize=1;strokeColor=none;fillColor=none;" vertex="1" parent="1">
                    <mxGeometry x="425" y="-850" width="190" height="60" as="geometry"/>
                </mxCell>
                <mxCell id="FrE4rUe5YdyAeCKvRlFz-10" value="&lt;pre&gt;&lt;font style=&quot;font-size: 17px;&quot;&gt;publish_rate&lt;/font&gt;&lt;/pre&gt;" style="text;html=1;align=center;verticalAlign=middle;resizable=0;points=[];autosize=1;strokeColor=none;fillColor=none;" vertex="1" parent="1">
                    <mxGeometry x="425" y="-810" width="150" height="60" as="geometry"/>
                </mxCell>
                <mxCell id="FrE4rUe5YdyAeCKvRlFz-11" value="&lt;pre&gt;&lt;font style=&quot;font-size: 17px;&quot;&gt;use_sim_time&lt;/font&gt;&lt;/pre&gt;" style="text;html=1;align=center;verticalAlign=middle;resizable=0;points=[];autosize=1;strokeColor=none;fillColor=none;" vertex="1" parent="1">
                    <mxGeometry x="425" y="-770" width="150" height="60" as="geometry"/>
                </mxCell>
            </root>
        </mxGraphModel>
    </diagram>
    <diagram id="NqtOp5X_auXqcgOzc6Ub" name="sketch">
        <mxGraphModel dx="403" dy="158" grid="1" gridSize="10" guides="1" tooltips="1" connect="1" arrows="1" fold="1" page="1" pageScale="1" pageWidth="850" pageHeight="1100" math="0" shadow="0">
            <root>
                <mxCell id="0"/>
                <mxCell id="1" parent="0"/>
                <mxCell id="wuU84osmkYlgg9zy1L08-1" value="" style="shape=stencil(7VlHbhwxEHzNXgnmcHb4hwFL1sKyZMhy+r2LWHA0LM6W4KMB3xS6hp1Z3TyFN9/uPny9OXn77fnp8fPNz/PH57tTeHvy/vxwd/N0fsZPp/DuFN7cPj7dfHp6/P7w8fL71w9dsv/05fFH/8KvC85lE21Hefv78pdq0uUP7y/y9+eHvXwwqU7y0bQi5K1pcZIP48BD+WJaps8Hf10ch/tJHOdlIe9Nma11bXzhWH1T3Ky9l+oH49OsfhxfOJTPxs/fT9AwSXdaAhRjVbyicbPFKRpfBaAYRwGuxqoIN1PmGERrXBYxcCYFdmpSQfPGRwZY4VUAwhyG4EyOEpAcA0KQAEokAJyIAwCNTrCycJBKLi4AZUMwIbNK0kso5bLYIFIDgLK4NSovBVMbA4o2uhHAGyfqAQ3ArrmkTgBgztYQZAF1lTIDonJrNm52a4QblEqFvZSCLiBU3Jwaqco4dK9nBgRxQjeRVIpDyWNAMpH6djNBAeripWS8UAlNpVYGqDjA62UGJGu8UClmPgFeskqlNrw+ABleEoDkTCVAkzakpUQBqCJbU2IboFIUvRXXRyYA2rOouNSGiTuA6hrZjxt87yVRD/3fc5spzjR1QuFbtzTJGuDENru1JpNF4IrnSNc2zjwGRL4fGoiJMLog+eaabs54RZSqabPRzcsmUN3ocxsgyuSraAKkUpKRhhOpprtK6oRiAsUBvVAEDl6nAoJVWZwABexsQ0njqj8GBK4HJJ8TgYNPMtV0kZFu7eAE1WYAoPsBgCxJouVQI4GD4A44opFO4VWdIgOKyL5uNamkeSgAvjJAWd0qMywAqgp1ZR7aq1Z5qTI1BiAqQFlU2tjENUAJDFCdDIA8d2NEWg1A/YS5G/fmqrwEGywDvMrv5WYvdtzEV+PgGBD1CVwQVpKNnkuZAUlna1pOaKIbt6UxwUsyNdaKA9MVcTguatUs+xEECLr3oUbJ6ih1ahvH2wEUeQDAriWncyOnBaBCXQfH26ukkqnwyNGNfqWo/w6QRu/dxUHmd+CtQykjH48BoGxzfuPubiIOuEfdfEKnJwqQFz6DMUeoVLeZZwM0SeJwkdP4usv4YwbUmCci+EEcAcrkGhuhll0gZZGMSNJqZAKtZ8CxvMiN3ktJJT3w5sqkrGJIESrlxDbA01EBPJPjfssplSxf7VBSXVppG3o2QJI12oeU2eic5T26jkGdYwmjMWjl5aZW9ASzJN/UTu5zYmG+nrd58xiQRjJvAMyvwq1xGVKSH63q2gzeZkCs0uiQufVhopVT/tasd+vKpE4AXycvaa7rK0/58JKawQ9WrtEEtc/Zsn+3eHhlY8QrpjL2kf/3m//3mxzpf22/6ccGagPoSc67sc3cCshJ4uoqv0n1zZ16s4hMXNFm1LW70Pu+1VLNm3de6BlqX+T4+2gZ6oVjofa9AahXHX7UgctUVoQxE24cQF7QhSmD06OJY06iiZuLXJh+JO2xfOHvb9vma/JkbpJzPeSp7rMkC5Cn5UeWjKrL0x01Lt6r8jT0yG1915/YjuxC3T/z96scYLr/G8mr2RbytLqpel9Vxq7pRV7qn5ctoBwiIU8EtY5+cU3+797EX5XHDy8P8Lfn+/vL+/3+//xgjz9dHvvDuz8=);lineShape=1;strokeColor=default;" vertex="1" parent="1">
                    <mxGeometry x="306.0439703402609" y="315.8981537919258" width="49.68529828400369" height="26.277667216768652" as="geometry"/>
                </mxCell>
                <mxCell id="wuU84osmkYlgg9zy1L08-2" value="" style="shape=stencil(lVbLctswDPwaXTEEQYLkOU3/IzNxak1dO+M4ffx9oapyTEjeTm+yhDUXWGCJQR7e9k+vuyGGt8v59HX3Y3y+7Af5NMQ4Hve783ixp0EeB3l4OZ13X86n9+Pz/Pv1aYqcnr6dvk//8HPGRSUpEyqGX3/fUNI/Lz7P8YfxeBMvhULt4lko831AapRzf0ChIvcBmij1J6RCKd8HlExVOoBmEkCpJqrcASqThPuA1hYCC6Blau0+gEOgEHqEUqvwiJh6QKFWAKBQdJwq1QQAiWJfJjsTKdcC5eABDdVVV2VqsEw1LgRuAAVJ3Xz3TXUDlIpSTr5KCXSfNROL1yGBHAwQXA6KAUrRlTVTRpQq5X5ETcqCdGCq6gEMTqiZiquSLDO1DWhUwwoAbMM+a/SUIho5pdI8AFEyXVv1ZVU0QNabrkpKCprPALoaUQioFFbNlxEl863ViEoEAF5VqS3eti1c8dZ3Y1XbCKGyGrkKkqiBOHlAAkkUc7Liy4T620YuqRcCZb0NAJQ0kvZJm1UFYN9ZSPqkVaExJfbXYqqLVW0C4vXGud6jZoag+9hycFKbVYEZDYtKV0bEIIPVDSewVQNJL0GEpseU+p7gpQ231xKKbishBmSyl9euOvDvpkx04Uhb5sUWPuIDijdn83TQSLL5iufDgL59rs2nCzpnUlJcNQOYeCsnNxdfQPX/d+f8d7w9fCy4L+PhMO/Ht9/9Qmyv5mVaHn8D);lineShape=1;strokeColor=default;" vertex="1" parent="1">
                    <mxGeometry x="302.2344199838434" y="340.70551760606276" width="3.9231069715571416" height="15.883900493178317" as="geometry"/>
                </mxCell>
                <mxCell id="wuU84osmkYlgg9zy1L08-3" value="" style="shape=stencil(lVbbUuMwDP2avGpkyxf5mYX/YIayzdBtmVLY5e9RNmOo5VgMb2l6jiUd6Sie6OZlf/+8mzy+XM6np93f+eGyn+jX5P183O/O80WeJrqd6ObxdN79Pp9ejw/r7+f7Bbk8/Tm9LSf8W3kcoPDC8vi+vong/P8Xdyv+MB+v8CUD+gbvGSKOCQ4RENsICBTHjMzgXEPIBCWPCZQgx4awZFkMAoFvIxSGEMYEqdG3VZcCgQyCB8+aUIyiXdK6LgQjJYfgsEvJjQnS19DVbOAdpF5Uo4KuzSVCSBaeUosnYEtSyOp8D2QMngxFbvEO0MjHeXCqYKxd3ybIULQVcAE25tQHCKwjWCkRbqSUjR5QgNQVzZYTMkTWXSBj7EjcriLIBrFqkAjUElKNOapBR+DqjZFKqNxcqm6jPlDnNWv0pNPKa1dbbTRM2g0FkqFr6tzGkI3GeUiqhE+dR27ruoCG+7FbRyKaMdsOssJ7M/+f4qnoQc0OgpFQ5Lo+rz472VAofhZYCYv9rEGVjraaJiiGpIIPbQB7QQasE1PxAdAYoUCA7fkiqYWXmWt942pB2wI5fT7WFbuNT1W+L7y1T1P3xbE9lrLejtIvI/8s3wudTzL6lburjkyckQ8jMCr9rf4yQWz1p2qKbfwPr2rf4+Xh6174OB8O67Xy+n99j5RX6x2Ubj8A);lineShape=1;strokeColor=default;" vertex="1" parent="1">
                    <mxGeometry x="309.76373394596203" y="346.2515866491799" width="2.319624344299124" height="8.844219196642902" as="geometry"/>
                </mxCell>
                <mxCell id="wuU84osmkYlgg9zy1L08-4" value="" style="shape=stencil(lVbLctswDPwaXTEgQYLkOY//yEycWlPXzjhOH39fqBopBh2vmxtFYUkssAAxyN3b9ul1M0R+Ox0P3ze/xufTdpD7IcZxv90cx5OtBnkY5O7lcNx8Ox7e98/z9+vTZDmtfhx+Tif8nnFKIU6gyH/mjdColn87j7P9btyf2YtQYA8oVPg6QCPl5gCNQrpu3xJJcvZMDM5vSly8QxQDsC+k2dlnqgrsK7XgzxdKGQAaFR/SaDFr1wGBV4YLQtJC6j+vSIkaCqqR8DfkRIpusCiJA1geo+A0+LCqUr2RZ89BKzFKXLxwKZNGAAiL0FbSjRoC8OLACgiUgUu1kXjtJRMfCKsBYvWZZopAfQYoPqxWn4rUx1R8lAJTRnmIfQcQqkCtTahoV5+C7DNl7uwTrs+QO38aIlwpXxBWRLgtOT0LacHV1nyW5QbltYWeySKhHmay8Dkw4UFp174LK+PiUdIOkHEDSH3HmMoTuZT6PnkDoNKTLg1m2p6e5OvZtJsquGH5+6EM/JYYBS9tS0wAURXKnoGJHbVha6EdAZMqIGDNxOegytIDP7Xn5WFaI5qXE67Ys/fHRIFq/+KdygofBe5bfFIq8PzmRwWpMP7hk8JEs4j08ZwyDvyxN9JL2m4U4M9Xh6nb9rb4mNxext1uHvzO//eTnm3NU6I8/AU=);lineShape=1;strokeColor=default;" vertex="1" parent="1">
                    <mxGeometry x="304.0637414158829" y="350.474250244017" width="8.69836751130606" height="1.3730891586970604" as="geometry"/>
                </mxCell>
                <mxCell id="wuU84osmkYlgg9zy1L08-5" value="" style="shape=stencil(lVZbbttADDyNfgnukvv6TtJ7BIhTC3HtwHH6uH2pCkq0lD1F/mSZI5HzoHaQu7f94+tuiPx2OZ9edr/Gp8t+kPshxvG4353Hi10N8jDI3fPpvPt+Pr0fn+bfr49T5XT14/RzesLvGZcjcZtQkf/MdxJx/Hfj21x/GI+r+pIoa1dvgAoAtVHoAVpJASAwE3OHKIFivo1oSpo7QEtUCgAwNQcopAyGUKoOUKkIoClT7WdojTIA5LL8vQBWPFxFpEqyeUUNtwHarvTEgCYVL4TRVIEQUv0QLZOAlqR4c5iWqeI31B4QqSY4Q3AzBNiSsdTcDLw84pYOWjqAWV4ArSa102HKSINmcnY1QAJvMLu25mdQQKtxwupZQqmeIufeIKRABwO0niXLaAS0mq668VIFM9StlywhKKOWyOTzIOANhalsAE2B0ma1vAGAllJcZFq3hCL6sa3XQwNapVGpG1qBcBZRv2YSBbQEzN5OOLMGXgJXAMB8aruyN1+JFAFAlHKvg6U8g8SF6rdGNBqA0rYiemfkxVs3yt1itSyA8uDbF5gE80TPZ6SMskytt1CgBEYN2e8KiwV4vDXr2mEYfGFK7OrRd9A+CezrA+jfIhOCq8/AniksR4NPfgR4J2VKwdGv6MvPfm/JIvf1+i+e2P5fbxefx8Pn8XCYT5fr//1x0m7NR1F5+As=);lineShape=1;strokeColor=default;" vertex="1" parent="1">
                    <mxGeometry x="319.09906329756916" y="348.76791726735655" width="1.7960304400133584" height="9.624882037041743" as="geometry"/>
                </mxCell>
                <mxCell id="wuU84osmkYlgg9zy1L08-6" value="" style="shape=stencil(lVZdU9tADPw1ftXcSbqvZ0r/R2YIjachYUIo8O+Ra+xGB9kOb46j9Z12V3s3yM3TbvO4HTg8nU/H39uX8e68G+THwDwedtvTeLanQW4Hubk/nra/Tsfnw938+3EzVU5PD8c/0xdeZ5woxTqhOLzNbwIF/fvi51y/Hw8X9YVJgqtPxPF6fWWK6uobpXq9vgVKvj5WUrChlimzA0igWgCgUfEraKKEAR9/L4AcqDW4pa7nYisIIKlR9aTWQjkDQFxIX1m1NYEMxQBe5hhM6HAdkePig3WJSo2vA1LsaWpMDUitQjX7rnnh4UuAVCq+69xIEwCYN/yWkpIAM0mh5puWRgEop0zqlbN5iAiw2n8VQqFyyZr2/i4UkW6Vql9AqQKOiqlauu9n8H1zZvOqxQQToym1jqJMCjq2eQt+BbVQAM67sPKqc1pY+HoJ61F80xYaaKSZuJtQgeauStxNg1ABKVO096rxwEC4rKTcAyqw3gSQ7wBMp44lS+cCthTbotPKUqUAmo7Sh4xFAAqZ0k/PlKxABulbzuY9oHPoIylZroIGPhnPzhIGlNrB4RPMzl9BkbecG+vsKAWU831YWLo0cJCYANynSwZ8msKl2xBMC7PQR/hcXC9Qv9+8jvy/3h7+3X3ux/1+vjpd/t/flezVfM+S23c=);lineShape=1;strokeColor=default;" vertex="1" parent="1">
                    <mxGeometry x="319.5969597228227" y="346.26368109874943" width="2.10410495151973" height="1.3997582207526496" as="geometry"/>
                </mxCell>
                <mxCell id="wuU84osmkYlgg9zy1L08-7" value="" style="shape=stencil(rVbbbtswDP0avxIiKery3HX/UaDpYixLijTd1r8vDUNJRNvcBgzIg2OfI5GHh5QGfnjbP73uBgpvl/Pp++7X+HzZD/xlIBqP+915vOjTwI8DP7yczrtv59P78Xn+//o0IaenH6ef0wq/Zx6GACFMNAof86sE0z/9fZ0Jh/F4R6gRYo+nAoG3CaUAYUeQAFS3CbkC9TtkhJi3CYmBqSMUgRK3CVxbAI1QMzA6hAhFekKB5OSgmtTcEyokR1YioJ5wV5lVBgrEZLcoDkGTFosPjkpxRaTs5IwQDD4Blm38wng3a22sj9zjCZJTtAhs8tUIHXwFjr2LKmTHdloASZYQ/Bpz6QkFikfQ9bLdwWtO9Wk1GgXA5HbCUiTxTIFQjLHZDSlS+3wliDsvYgA2OyS3DpxA+gGjzUkeQX2w6AR2VFIryYJQHZUwt+lwT3CSRrRDsl4rs0oQyGmRs4PHhTFUVAevtllWzWnOsKgBAzrDgiGY+LGt8F/wKlAyvfaHaYGQe0IOED1j64jvJYo64h3bCUHuNaIM4mgq0ubz9eSE5HlCoPYi6Qh3TCfFFplaSuvnrB7DfQJXzdbxGm4ff4Di4FVwM1D1ouDhpS13w3seLQgcLN4pWEmtPDd8dOJRS2Ix+pB3IIs1NbUpsI7PtonZdeh05ejrFf0D/F/vgn9B0Ifb1fNlPBzmm+v9d3tV1VfzNZcfPwE=);lineShape=1;strokeColor=default;" vertex="1" parent="1">
                    <mxGeometry x="328.5867199111184" y="347.2601593929414" width="2.516623389939165" height="9.523583670999793" as="geometry"/>
                </mxCell>
                <mxCell id="wuU84osmkYlgg9zy1L08-8" value="" style="shape=stencil(lVbLbuMwDPwaXwlJ1IvntvsfBZpujKZJkab7+Pul15AbyvEUvTkOx9RwyKEGvnvfP77thuDeL+fTy+73+HTZD3w/hDAe97vzeNGngR8Gvns+nXc/z6eP49P8++1xipyeXk+/pi/8mXGJoptAwf2dX8RIlf+/+THHH8bjVXxwFLMFCIlsA7gQBwNImtNvA1KmXCwgktRtQMnEbACcKOVtgERyNoOnWEC8HtgmcOQciM9UfRef0XkquWoJEIOSipC3ohUSdB6hYjXzTAVI4N1CsCGUQgg4haUQMpWIOUTLOVBGJOoKUMgj1VSFrqq4UyeZxba2o5JgH3nuMzDoVAkkHSCTQ2UN7e8F4DHA9xxCxL3h2zAuvVGJQW8ooHTD40mQ0oGSFS5TRPFMOVkK0C9UBbEH0lZFqqld5D4efb9Q7lqbAuq7StV1fANwVJ2EJH1BoV1IT1glc4iBAqzG2hQZA7qtwK5ZyBbnZDOoBaM1IqutoKMDq/pdQKnNHRaTVOFB3+neqTaD5hRQJV4Brnzztq/KKkWG0xmbhy7xgSrgwP2ofU7r7W1O0Z6nqoGBeN8v/5qa79+Md23NLPGeAuC7LJlFswTrs1pTxZEHFu/6RZtj6/SN+GitKNW2VDbq4+woJyYBdq3Oab+vlymsb8c3ag+CuYz9DMREHsR/9zb4dbw+fF49n8fDYb65Xv/fX1X11XzN5Yd/);lineShape=1;strokeColor=default;" vertex="1" parent="1">
                    <mxGeometry x="324.6930893682319" y="350.96275475723365" width="10.269246722326443" height="2.1672589545352516" as="geometry"/>
                </mxCell>
                <mxCell id="wuU84osmkYlgg9zy1L08-9" value="" style="shape=stencil(7VrLbhw3EPyavTb4bJJnx/kPA5ajRRTJkOUk/ns3s+Z4WJwpw6cggW7SLmvZj+rqJmcu8c2n+3cf7y7BfXp5fvr97q/r+5f7S/zlEsL18f7u+fpif13i20t88+Hp+e6356fPj+9v/39811f2v/54+rP/wt83XJEcOyi4L7cPohT3zwe/3pY/XB+n5TVPy32UVM/XV3FhWh9UUmC/X9K0PiVx8Xy9is7ma5RGfj+Lm+0vbVh4uD5K0Gl98+LK+XofxM8OVJVAAuSrtIoWKcmAmVTnHUoQ5wkgi84AzZIyAaRh8QDkNsJ8DNgM2GWhMpOMBGBSkEDCGp34OW+5SiQ7xCSpzIAgjYQ1VskzU1OTpOeAFCTOPmQ3yHUMWLiXkxTCvWTMmU1SL5k4bYA8s1UbzUMHzIkrXjzJdFKkhpEvEnqb09+ivgGiZJIHA8Q2AyyVzAcL4pzpkmmJdkVpCPhGx2NAHC7uAY1SQxdAYJm2AkrotDIu+RHEXVhppjfZ2iWusB2cVNjBj1ZxBkCnHXc6D/bvVCOTxOWNmxvADXk+BlhNQ8VZHkim1URlEQHG1qLSZi5ZhXjiQ42ofEbHTLhk7aMGBFRiUi3S5ihZ7ivJdK2jI+8AhZlkLcsjoJE81CZxzkMXT8IlA+AYEKQSk5rDArKiVVIPBghLHpgIGCBCWPNoAKeAuYC6eJI8GMDP6p0KFWOLEuahjE/OANAfUh2fnAFgmrF6YOOYUUMLAlifrn7p09aTSEMpNlFCj9s6xhlAYeTjiathzF/bCGfaymq6ip9FoFcIAbSEU7Hlnu3QbIeKAKYaBiiKgELC2pqE2QcbdFniDKAACJStBmgzl1oc7DqejJ0V9ZwICxytIJt2wOtMdcYA0CAan9YNALND2zrAWSIyeF0oXe1rDFPhwmS/VxBAE2EdpaIPrMn1rwOGlYqr4mhsicsscYoNokXutC5hDTysilrZ+Czdow7kc/QA0RO31CiNUh3Tzh7AyecD+uCZSW3ZwUYBXg9IjUBHgaMa5WLZZWDuo8aNxr2GlmLs+wEAz+zKtc/EEkwqQw1P5XitUdJHfx5g9F9Moo1Xcfq2sNKLnDZGtl3TYpOrdU3woWxFeAxIGFYNtPH2q5jZJDtRR9Z4E0bJpj5W1K+z8ets/B+ajU35AprkGVsjtqC8jdfHFVfwLjFHSj41k6BElYpxP6HPJtkhn2XaDICGYnuykez10mvI879/6bXsEAIF4F38/+TSiwPw0qsMeT7dYbn5VhLWWFC9rQYjAwTcQZU/gSjj7LmLEpv5gh/z1y5xjBq+jgcUm0mVstUv2mpRcoStZhKwtT8fYM848qKtYZyxjwHLGJrbaGJnAHyKUnkeFO8d+nUky4Mb7N9mvjz0/DisEWWm8acoBaW1VXrwcygBuwPFGQDuZtqYAY89WC5/CpUM6z5ru2K6ijc5pptsGFtk2JLIWBRxBLCUsHEyLoPVuDk6W45Pf5l6xdEBNuu5siDdPO+C4mfyOHpYTXh34+jMmXEKduO0cbJ8+XXGS0UiO3qYWkYQR2fN5fLC0zmwjCR+X86LFh5JhFH1ZzX+c28M/GC5/fH95YQP14eH27sN++/xZQb76PYiRHz7FQ==);lineShape=1;strokeColor=default;" vertex="1" parent="1">
                    <mxGeometry x="338.8332292992176" y="345.1851272593942" width="26.336582229039323" height="14.123543806011034" as="geometry"/>
                </mxCell>
                <mxCell id="wuU84osmkYlgg9zy1L08-10" value="" style="shape=stencil(7VpJbhsxEHyNrg0uTTZ5zvKPAHFiIY4dOM72+zQjjGzWeGrgQw4JdJPHVWKz1yI1h/zq6/W7L1eHFL4+3N99uvpxfP9wfcivDykdb6+v7o8P/umQ3xzyqw9391cf7+++3b4//f3l3UCOT5/vvo9v+HnixSxRByuFX6cnJhr/PHh7wt8cb5/ig7Qw4asU28abNJvgRUy34Sph/nYVS9vwICUBPHYGzx3hgcFTneBZGv32iHDmmSChATxy+LzVJEbiFNCRSRKHxwke9769ADzRMMXZ9iBGHZkiwJXkjEc1Azw2BtcK8JBpinWEk5xJy9qPUQ3EmC59NqZJZ99eJM/4aNJJoFQlz770FZh3qufJHNpcpRGCNVxBvcSJQ1uXOBNKXp4876O6bPFMcLeRUulddI5ZLaLEJCfUiIRCMtQJlpDQuEnYNqskblKrSKiVEjqsYBL5CmtCJVU8TJp7eW20fw5CREIhlTzcmpHA0nsEDuLQ6QRwQglIyDxw2ZDAupEToIDGCswkXZL5PIGjFLLpliUpElgLqw2bUuVtpiQpQChSiZdyE4U4RFqi3oXaXKLFTSqEEDE1SqUzJ3YcacWbJ2lkcW1SkUT24AQzJARSok6oQFCqhgYhICETLzmhzMnnvZVFehAyEpS5db1Cks73AAPUCcrjUCsS2AwdcQCT4vJkM9IVCYVvuncksJr25APFMwhkD0PztJdsOpVVPag00gSyYdeogUpCt7iu5kMgm64rrW8+dkkBtYR63FubsYGSUBn2QEVzt8WAM0GX887mfJhN6mWJ/ebImpPP5UriK7SGBNZb+0ojdqMrxLAS/85gGm4sATad+8ImAQLR98SGdSRUrh1qRgLrZEP0gTQOXKqPSb2yiR3wxh4VCeyI5/+GQ9t4wlY4D8EngdAdArjJQ83Sr6HaGNnEvRQg/TxfeYLHjgQ2qYfEghV2aw6G1iBwbWwBTdppA02RwDTZSE5Ftwa+AowUJ+zpeyD4yYu7FU1qdFKPTa9KTrlJdV1A3CS4r3nc1WZqlBWBjPaXEwwvedxLtJOlRWs/GSlsjvqUSzOhmRg7ghseLo33Sp/U0Pr8QJDICq4FIox2pW3G1QYcCPwIflHfF/X9n6jviO3eN83Se1zTQT0ojUNueCVVjPYlN6CCXI907PqRPs2b9ppupB7GNcLqhqkzlajopWpU31/u4RYvXe7h/oF7uIqdr+ZFXD9fQO4TaDMeaVLT1vAXIu30zF4TXpVrpKpSdTHgfHuf6KZ9sMPV4M4PRavMiHk5RT3fi1E4GL3rv/ygR+CXH/Q24H/zBz2VYGg7af+GB3iuPGLA5p/oBUFc3f0nrmEzVkiiosDxUICZVpTjQaZk6h7HQ//IdLAMPFY4UxCOh1Gn9IA58KDxpezYD1NlL15w6OCvSwz/wxCiNxuO19mfO3eDGe+8jEvpl74esov3D4/vonw43tycXmV5+n98d8Ufnd57yW9+Aw==);lineShape=1;strokeColor=default;" vertex="1" parent="1">
                    <mxGeometry x="286.35439566022114" y="357.76640645102214" width="78.73920194355135" height="20.753458959234575" as="geometry"/>
                </mxCell>
                <mxCell id="wuU84osmkYlgg9zy1L08-11" value="" style="shape=stencil(rVbbThtBDP2afbXGc/U8U/gPJEKzIk1QCLT8Pd5ul64t9kSV+raZ+Ph6fBnSzcv+/nk3xPByOZ+edj/Hh8t+SN+GGMfjfnceL/o1pNsh3Tyezrvv59Pr8WH+/Xw/SU5fP05vk4ZfM46ptQkUw/v8EIjr74e7WfwwHtfiTJKMPGfKZRsQK7VoALET521AbtS6AeRC0rcBLZGwAdREuW0DupBkA5BAFcTQO0UHYMoJAopYQIJBK8C7VKgyBHRnQaigoBVg09q19NiCVAvI1wDVVro3ilfSamPQlwDINxWue0DHgNw8QJBLQsFZEGqocM33T1fCIwuNSvFpDYDeCsgOwBSwS9nGII16gIBqLSj5AqK36rNDQCI1ZEEoOpeYWCDgj751i2LyMXsLkEudsvgYMnKp+0pLXkbbZscVX4cCqMEhULBRd40aB9FdyyXMvr608IqucFZqmpxLAoOYWti59Jm4rVJX69IqD/8JoSvii3kMEqtLqNgoal3i2lpzyVrIeNLoIk3WQtI1B/LEfgfFCPMa/KxUDR04FHyKphcwBIL3n2XRsCHP7nCoFEFGg+cRpyv6Xe+wZgDrt+tN4BgOFC3nChVAoLDcB5/VpQSL5Y4khn2vo81OFi0VGI56rLATR93yryfhNXH9+Ht9Po6Hw3y8rv/316o+zZduuv0A);lineShape=1;strokeColor=default;" vertex="1" parent="1">
                    <mxGeometry x="263.9344034784492" y="376.3608925436374" width="34.207328658903634" height="4.493856450884853" as="geometry"/>
                </mxCell>
                <mxCell id="wuU84osmkYlgg9zy1L08-12" value="" style="shape=stencil(lZZJcttADEVPwy0KPaPXjnMPV1mOWFEkl6xMtw8Yhg4bTX6VdxSFRzSm/hjCw9vx6fUweH67XS9fDz/H59txCJ8G78fz8XAdb/o0hMchPLxcrocv18v38/P8+/Vpspyevl1+TF/4NXMuUSoT5fn3vzcU3d8Xn2f703he2XtPNbf2nlLYB0IglxrAJ3JxH4iFYm2AUCkDD1kotx5SoZD3ARFKrgGKJ6n7QC1UuQEkk5R9wDETt0RVpx64qFSCBaoAQKi0hdNPBByEjxYo6EiJvFiggkJULXWb11UetgmmmjoX4ExSiUMXBPAghVIXNWyObLtpKgSIWoHYARFUTgEzQgow8iDkfAsUymCENEvSAQEA1S3tvAIc6r5InDsApLVmcp0Hf2fmOiAhD5V8B8B2fe/mVR0CmOoJ6IZasAdnsqSHRDEUErYAuvt0Rm2WtPaocIGkm4eK6uC6eahL/+41X+5HFM1DWS66FXBngKQDGAPRBC0wrR8H4tI57wpRlnbcBIqKYKtyJcCZTgq0rZEEBq3Ca5Q98qIA26IltvlUqTOq9OJ/tQogyVItaDvJwVbtJNQti8GOeTTisyRsO1ry7WGYCkiOp1iMeURLjD27ph5sVYmKPQyDxOvt7605UllK9jCM+sBZ3efl7t6291Y8GC4iLtqNkCmDPtAVle2KiuTyoyvtfXt9+L8/v4yn07x+r/+3+7a+mnf18PgH);lineShape=1;strokeColor=default;" vertex="1" parent="1">
                    <mxGeometry x="308.17432362534146" y="378.12153227638964" width="6.255866267494184" height="29.803837870261606" as="geometry"/>
                </mxCell>
                <mxCell id="wuU84osmkYlgg9zy1L08-13" value="" style="shape=stencil(lVfZctswDPwavWJAgudzmv5HZuLUnrp2xnGvvy9UV6kJVOv6zZZ2RRK7ODjJw9v26XUzRX47n46fN993z+ftJB+mGHeH7ea0O+uvSR4neXg5njafTsevh+fL/9enGTn/+nL8Nn/hx4UXqNSZFPnn5QFTb78ffLzA97vDFTxSyAO8UxAErzLA9UnM63gh6QNeGjHYjlDnAZ8TxbSO17fj90tfVlzB5zTga4fhSdTLgG+NAq/jy/K193BGamEdHyLJuKGeiQsQQCMaRkIhAYppwJtYQgOS5WI1U0Kv64SqZ4huBXCGlhaPXREqUFmDyNkSCpBZX6fqVgA69051FLo3ikA4JfRoCQltSQndEpA1/kHoS7KuEtgSEhBuPrRYQgVe0tc5WMKfMKwR4ihcYCYGCaRBsRnUofuUUJMlNGSmZmuAEgo6hArrTi2YIM5MHXmjuZRrVJDUzQmhn8CEypYQkPt0x8YblTp2X2RHwP5OxRGwXYuLUkBKqxGqi9KNHG2WUIFbr9x85Q3Ge+rOfXIjSV0ZgN7QJHWEhlewPQg3xfmI1RGwv1t0BFwFigsrEuJ+gnYIc+i2TE6rPcgldQZRmrucXwFU17mPiiXU+zp1g41XZwHrJbyCThvBZVAEpS+EZbb432nDpajAMiOUxgzVgUyAzkI8xrQxzE8dcMf9lPcytYI3pV4HVtQbgp3GVJMAUifY+XxeEdiUKRsPLRPyCtyUrwBHDIWPbYep4a/buwiqXGzNxpRAKNlOwgyvCmydw3CSZ3+PYriZ5uCocfjIIFcGisXuHcJTNHCUI4FyNvAM4UUMHA2Nd15Ib8L1x9+778tuv79cna/f27uyPrrcs+XxFw==);lineShape=1;strokeColor=default;" vertex="1" parent="1">
                    <mxGeometry x="257.8451883018388" y="370.8490931365319" width="56.187362757443225" height="44.15283162023692" as="geometry"/>
                </mxCell>
                <mxCell id="wuU84osmkYlgg9zy1L08-14" value="" style="shape=stencil(lVfLctswDPwaXTEg+D6n6X9kJk6tqWtnHPf194WqoWLC5ra5ybTWC2CXADz5h7f90+tuEn67nE9fdz/n58t+8p8mkfm4353niz5N/nHyDy+n8+7L+fT9+Lx+fn1a3lyevp1+LL/wa8WVQpwXlPDv9cQVcvHvyecVcJiPV4CUKZQe4MnJGBAyJQOI5P0YIJWkD0kSRQDQiIU7QHDkAgAkCj1D1KRRSImK6wDZkwCGoDXpGYqjBABJGUIP2LK6D6hNpg2gJ3UMyEy1z6EypQwAjmofUhUKiEFa1TdAoAC8pAxGh5rIJ5gDSw8o7WTk1up7QIXCpUjhBlCRDkI53wAQA5PcMHhQJfUmV5u0KwCg1yXaskagdIyUDUNol3YEKAagZXAwpGKEYypAaU069m5Ve3tc1pxuLhBwa/Kt6hsgUwFNQK8os2VgkHQq1ksKKMBLau/AtkqoL+kFSkYHRwXdOLF9qfqm/YjBWkPNghiYYt/ua25SjqpkcyjNXSMdxAAqDEmVTr01HHPT8j7CEUdLkVASHwV4aV3lSjl0g5y0VrqNIFwmtm6Nam/QBHzrKe19H0lQQMWOaR2raJ6E0PaEba5jcwul/n0smjq59DJrLwcdQ41selKCW8O7jzcF2mW6/36xS4P2A9DyFsf08esgAba+MvGmgGudf8RgMl52NxySkcyFdltHNaq9S9UUjBh04BsX/aOq4Wb/VE4wq3QyeQNQHcDOoD3XrJMLADB8eIf+D4A+vK/sL/PhsG7819/bFV+P1r8H/vEP);lineShape=1;strokeColor=default;" vertex="1" parent="1">
                    <mxGeometry x="266.61768927443825" y="388.7865193657634" width="5.887299661093039" height="7.94023252442192" as="geometry"/>
                </mxCell>
            </root>
        </mxGraphModel>
    </diagram>
</mxfile>